<?xml version="1.0" encoding="UTF-8" standalone="no"?>
<!DOCTYPE svg PUBLIC "-//W3C//DTD SVG 1.1//EN"
 "http://www.w3.org/Graphics/SVG/1.1/DTD/svg11.dtd">
<!-- Generated by graphviz version 2.38.0 (20140413.2041)
 -->
<!-- Title: controllers_diagram Pages: 1 -->
<svg width="860pt" height="827pt"
 viewBox="0.00 0.00 859.50 827.00" xmlns="http://www.w3.org/2000/svg" xmlns:xlink="http://www.w3.org/1999/xlink">
<g id="graph0" class="graph" transform="scale(1 1) rotate(0) translate(323.5 483.5)">
<title>controllers_diagram</title>
<polygon fill="none" stroke="none" points="-323.5,343.5 -323.5,-483.5 536,-483.5 536,343.5 -323.5,343.5"/>
<!-- _diagram_info -->
<g id="node1" class="node"><title>_diagram_info</title>
<text text-anchor="start" x="8.5" y="176.4" font-family="Times,serif" font-size="13.00">Controllers diagram</text>
<text text-anchor="start" x="8.5" y="190.4" font-family="Times,serif" font-size="13.00">Date: Dec 22 2016 &#45; 03:25</text>
<text text-anchor="start" x="8.5" y="204.4" font-family="Times,serif" font-size="13.00">Migration version: 20161222022551</text>
<text text-anchor="start" x="8.5" y="218.4" font-family="Times,serif" font-size="13.00">Generated by RailRoady 1.5.2</text>
<text text-anchor="start" x="8.5" y="232.4" font-family="Times,serif" font-size="13.00">http://railroady.prestonlee.com</text>
</g>
<!-- ApplicationController -->
<g id="node2" class="node"><title>ApplicationController</title>
<path fill="none" stroke="black" d="M372,-361C372,-361 520,-361 520,-361 526,-361 532,-367 532,-373 532,-373 532,-443 532,-443 532,-449 526,-455 520,-455 520,-455 372,-455 372,-455 366,-455 360,-449 360,-443 360,-443 360,-373 360,-373 360,-367 366,-361 372,-361"/>
<text text-anchor="middle" x="446" y="-439.8" font-family="Times,serif" font-size="14.00">ApplicationController</text>
<polyline fill="none" stroke="black" points="360,-432 532,-432 "/>
<polyline fill="none" stroke="black" points="360,-408 532,-408 "/>
<polyline fill="none" stroke="black" points="360,-384 532,-384 "/>
<text text-anchor="start" x="368" y="-368.8" font-family="Times,serif" font-size="14.00">_layout</text>
</g>
<!-- CoursesController -->
<g id="node3" class="node"><title>CoursesController</title>
<path fill="none" stroke="black" d="M-268.5,-281C-268.5,-281 -143.5,-281 -143.5,-281 -137.5,-281 -131.5,-287 -131.5,-293 -131.5,-293 -131.5,-467 -131.5,-467 -131.5,-473 -137.5,-479 -143.5,-479 -143.5,-479 -268.5,-479 -268.5,-479 -274.5,-479 -280.5,-473 -280.5,-467 -280.5,-467 -280.5,-293 -280.5,-293 -280.5,-287 -274.5,-281 -268.5,-281"/>
<text text-anchor="middle" x="-206" y="-463.8" font-family="Times,serif" font-size="14.00">CoursesController</text>
<polyline fill="none" stroke="black" points="-280.5,-456 -131.5,-456 "/>
<text text-anchor="start" x="-272.5" y="-440.8" font-family="Times,serif" font-size="14.00">create</text>
<text text-anchor="start" x="-272.5" y="-425.8" font-family="Times,serif" font-size="14.00">destroy</text>
<text text-anchor="start" x="-272.5" y="-410.8" font-family="Times,serif" font-size="14.00">edit</text>
<text text-anchor="start" x="-272.5" y="-395.8" font-family="Times,serif" font-size="14.00">index</text>
<text text-anchor="start" x="-272.5" y="-380.8" font-family="Times,serif" font-size="14.00">new</text>
<text text-anchor="start" x="-272.5" y="-365.8" font-family="Times,serif" font-size="14.00">show</text>
<text text-anchor="start" x="-272.5" y="-350.8" font-family="Times,serif" font-size="14.00">update</text>
<polyline fill="none" stroke="black" points="-280.5,-343 -131.5,-343 "/>
<polyline fill="none" stroke="black" points="-280.5,-319 -131.5,-319 "/>
<text text-anchor="start" x="-272.5" y="-303.8" font-family="Times,serif" font-size="14.00">_layout</text>
<text text-anchor="start" x="-272.5" y="-288.8" font-family="Times,serif" font-size="14.00">course_params</text>
</g>
<!-- CourseTypesController -->
<g id="node4" class="node"><title>CourseTypesController</title>
<path fill="none" stroke="black" d="M-87.5,99C-87.5,99 71.5,99 71.5,99 77.5,99 83.5,93 83.5,87 83.5,87 83.5,-87 83.5,-87 83.5,-93 77.5,-99 71.5,-99 71.5,-99 -87.5,-99 -87.5,-99 -93.5,-99 -99.5,-93 -99.5,-87 -99.5,-87 -99.5,87 -99.5,87 -99.5,93 -93.5,99 -87.5,99"/>
<text text-anchor="middle" x="-8" y="-83.8" font-family="Times,serif" font-size="14.00">CourseTypesController</text>
<polyline fill="none" stroke="black" points="-99.5,-76 83.5,-76 "/>
<text text-anchor="start" x="-91.5" y="-60.8" font-family="Times,serif" font-size="14.00">create</text>
<text text-anchor="start" x="-91.5" y="-45.8" font-family="Times,serif" font-size="14.00">destroy</text>
<text text-anchor="start" x="-91.5" y="-30.8" font-family="Times,serif" font-size="14.00">edit</text>
<text text-anchor="start" x="-91.5" y="-15.8" font-family="Times,serif" font-size="14.00">index</text>
<text text-anchor="start" x="-91.5" y="-0.8" font-family="Times,serif" font-size="14.00">new</text>
<text text-anchor="start" x="-91.5" y="14.2" font-family="Times,serif" font-size="14.00">show</text>
<text text-anchor="start" x="-91.5" y="29.2" font-family="Times,serif" font-size="14.00">update</text>
<polyline fill="none" stroke="black" points="-99.5,37 83.5,37 "/>
<polyline fill="none" stroke="black" points="-99.5,61 83.5,61 "/>
<text text-anchor="start" x="-91.5" y="76.2" font-family="Times,serif" font-size="14.00">_layout</text>
<text text-anchor="start" x="-91.5" y="91.2" font-family="Times,serif" font-size="14.00">coursetype_params</text>
</g>
<!-- CourseUnitsController -->
<g id="node5" class="node"><title>CourseUnitsController</title>
<path fill="none" stroke="black" d="M132.5,119C132.5,119 287.5,119 287.5,119 293.5,119 299.5,113 299.5,107 299.5,107 299.5,-67 299.5,-67 299.5,-73 293.5,-79 287.5,-79 287.5,-79 132.5,-79 132.5,-79 126.5,-79 120.5,-73 120.5,-67 120.5,-67 120.5,107 120.5,107 120.5,113 126.5,119 132.5,119"/>
<text text-anchor="middle" x="210" y="-63.8" font-family="Times,serif" font-size="14.00">CourseUnitsController</text>
<polyline fill="none" stroke="black" points="120.5,-56 299.5,-56 "/>
<text text-anchor="start" x="128.5" y="-40.8" font-family="Times,serif" font-size="14.00">create</text>
<text text-anchor="start" x="128.5" y="-25.8" font-family="Times,serif" font-size="14.00">destroy</text>
<text text-anchor="start" x="128.5" y="-10.8" font-family="Times,serif" font-size="14.00">edit</text>
<text text-anchor="start" x="128.5" y="4.2" font-family="Times,serif" font-size="14.00">index</text>
<text text-anchor="start" x="128.5" y="19.2" font-family="Times,serif" font-size="14.00">new</text>
<text text-anchor="start" x="128.5" y="34.2" font-family="Times,serif" font-size="14.00">show</text>
<text text-anchor="start" x="128.5" y="49.2" font-family="Times,serif" font-size="14.00">update</text>
<polyline fill="none" stroke="black" points="120.5,57 299.5,57 "/>
<polyline fill="none" stroke="black" points="120.5,81 299.5,81 "/>
<text text-anchor="start" x="128.5" y="96.2" font-family="Times,serif" font-size="14.00">_layout</text>
<text text-anchor="start" x="128.5" y="111.2" font-family="Times,serif" font-size="14.00">courseunit_params</text>
</g>
<!-- DocumentsController -->
<g id="node6" class="node"><title>DocumentsController</title>
<path fill="none" stroke="black" d="M132.5,-121C132.5,-121 279.5,-121 279.5,-121 285.5,-121 291.5,-127 291.5,-133 291.5,-133 291.5,-307 291.5,-307 291.5,-313 285.5,-319 279.5,-319 279.5,-319 132.5,-319 132.5,-319 126.5,-319 120.5,-313 120.5,-307 120.5,-307 120.5,-133 120.5,-133 120.5,-127 126.5,-121 132.5,-121"/>
<text text-anchor="middle" x="206" y="-303.8" font-family="Times,serif" font-size="14.00">DocumentsController</text>
<polyline fill="none" stroke="black" points="120.5,-296 291.5,-296 "/>
<text text-anchor="start" x="128.5" y="-280.8" font-family="Times,serif" font-size="14.00">create</text>
<text text-anchor="start" x="128.5" y="-265.8" font-family="Times,serif" font-size="14.00">destroy</text>
<text text-anchor="start" x="128.5" y="-250.8" font-family="Times,serif" font-size="14.00">edit</text>
<text text-anchor="start" x="128.5" y="-235.8" font-family="Times,serif" font-size="14.00">index</text>
<text text-anchor="start" x="128.5" y="-220.8" font-family="Times,serif" font-size="14.00">new</text>
<text text-anchor="start" x="128.5" y="-205.8" font-family="Times,serif" font-size="14.00">show</text>
<text text-anchor="start" x="128.5" y="-190.8" font-family="Times,serif" font-size="14.00">update</text>
<polyline fill="none" stroke="black" points="120.5,-183 291.5,-183 "/>
<polyline fill="none" stroke="black" points="120.5,-159 291.5,-159 "/>
<text text-anchor="start" x="128.5" y="-143.8" font-family="Times,serif" font-size="14.00">_layout</text>
<text text-anchor="start" x="128.5" y="-128.8" font-family="Times,serif" font-size="14.00">document_params</text>
</g>
<!-- InstitutionsController -->
<g id="node7" class="node"><title>InstitutionsController</title>
<path fill="none" stroke="black" d="M-87.5,-141C-87.5,-141 61.5,-141 61.5,-141 67.5,-141 73.5,-147 73.5,-153 73.5,-153 73.5,-327 73.5,-327 73.5,-333 67.5,-339 61.5,-339 61.5,-339 -87.5,-339 -87.5,-339 -93.5,-339 -99.5,-333 -99.5,-327 -99.5,-327 -99.5,-153 -99.5,-153 -99.5,-147 -93.5,-141 -87.5,-141"/>
<text text-anchor="middle" x="-13" y="-323.8" font-family="Times,serif" font-size="14.00">InstitutionsController</text>
<polyline fill="none" stroke="black" points="-99.5,-316 73.5,-316 "/>
<text text-anchor="start" x="-91.5" y="-300.8" font-family="Times,serif" font-size="14.00">create</text>
<text text-anchor="start" x="-91.5" y="-285.8" font-family="Times,serif" font-size="14.00">destroy</text>
<text text-anchor="start" x="-91.5" y="-270.8" font-family="Times,serif" font-size="14.00">edit</text>
<text text-anchor="start" x="-91.5" y="-255.8" font-family="Times,serif" font-size="14.00">index</text>
<text text-anchor="start" x="-91.5" y="-240.8" font-family="Times,serif" font-size="14.00">new</text>
<text text-anchor="start" x="-91.5" y="-225.8" font-family="Times,serif" font-size="14.00">show</text>
<text text-anchor="start" x="-91.5" y="-210.8" font-family="Times,serif" font-size="14.00">update</text>
<polyline fill="none" stroke="black" points="-99.5,-203 73.5,-203 "/>
<polyline fill="none" stroke="black" points="-99.5,-179 73.5,-179 "/>
<text text-anchor="start" x="-91.5" y="-163.8" font-family="Times,serif" font-size="14.00">_layout</text>
<text text-anchor="start" x="-91.5" y="-148.8" font-family="Times,serif" font-size="14.00">institution_params</text>
</g>
<!-- PeopleController -->
<g id="node8" class="node"><title>PeopleController</title>
<path fill="none" stroke="black" d="M352.5,339C352.5,339 465.5,339 465.5,339 471.5,339 477.5,333 477.5,327 477.5,327 477.5,153 477.5,153 477.5,147 471.5,141 465.5,141 465.5,141 352.5,141 352.5,141 346.5,141 340.5,147 340.5,153 340.5,153 340.5,327 340.5,327 340.5,333 346.5,339 352.5,339"/>
<text text-anchor="middle" x="409" y="156.2" font-family="Times,serif" font-size="14.00">PeopleController</text>
<polyline fill="none" stroke="black" points="340.5,164 477.5,164 "/>
<text text-anchor="start" x="348.5" y="179.2" font-family="Times,serif" font-size="14.00">create</text>
<text text-anchor="start" x="348.5" y="194.2" font-family="Times,serif" font-size="14.00">destroy</text>
<text text-anchor="start" x="348.5" y="209.2" font-family="Times,serif" font-size="14.00">edit</text>
<text text-anchor="start" x="348.5" y="224.2" font-family="Times,serif" font-size="14.00">index</text>
<text text-anchor="start" x="348.5" y="239.2" font-family="Times,serif" font-size="14.00">new</text>
<text text-anchor="start" x="348.5" y="254.2" font-family="Times,serif" font-size="14.00">show</text>
<text text-anchor="start" x="348.5" y="269.2" font-family="Times,serif" font-size="14.00">update</text>
<polyline fill="none" stroke="black" points="340.5,277 477.5,277 "/>
<polyline fill="none" stroke="black" points="340.5,301 477.5,301 "/>
<text text-anchor="start" x="348.5" y="316.2" font-family="Times,serif" font-size="14.00">_layout</text>
<text text-anchor="start" x="348.5" y="331.2" font-family="Times,serif" font-size="14.00">person_params</text>
</g>
<!-- PersonTypesController -->
<g id="node9" class="node"><title>PersonTypesController</title>
<path fill="none" stroke="black" d="M-307.5,-1C-307.5,-1 -150.5,-1 -150.5,-1 -144.5,-1 -138.5,-7 -138.5,-13 -138.5,-13 -138.5,-187 -138.5,-187 -138.5,-193 -144.5,-199 -150.5,-199 -150.5,-199 -307.5,-199 -307.5,-199 -313.5,-199 -319.5,-193 -319.5,-187 -319.5,-187 -319.5,-13 -319.5,-13 -319.5,-7 -313.5,-1 -307.5,-1"/>
<text text-anchor="middle" x="-229" y="-183.8" font-family="Times,serif" font-size="14.00">PersonTypesController</text>
<polyline fill="none" stroke="black" points="-319.5,-176 -138.5,-176 "/>
<text text-anchor="start" x="-311.5" y="-160.8" font-family="Times,serif" font-size="14.00">create</text>
<text text-anchor="start" x="-311.5" y="-145.8" font-family="Times,serif" font-size="14.00">destroy</text>
<text text-anchor="start" x="-311.5" y="-130.8" font-family="Times,serif" font-size="14.00">edit</text>
<text text-anchor="start" x="-311.5" y="-115.8" font-family="Times,serif" font-size="14.00">index</text>
<text text-anchor="start" x="-311.5" y="-100.8" font-family="Times,serif" font-size="14.00">new</text>
<text text-anchor="start" x="-311.5" y="-85.8" font-family="Times,serif" font-size="14.00">show</text>
<text text-anchor="start" x="-311.5" y="-70.8" font-family="Times,serif" font-size="14.00">update</text>
<polyline fill="none" stroke="black" points="-319.5,-63 -138.5,-63 "/>
<polyline fill="none" stroke="black" points="-319.5,-39 -138.5,-39 "/>
<text text-anchor="start" x="-311.5" y="-23.8" font-family="Times,serif" font-size="14.00">_layout</text>
<text text-anchor="start" x="-311.5" y="-8.8" font-family="Times,serif" font-size="14.00">persontype_params</text>
</g>
<!-- PresentationsController -->
<g id="node10" class="node"><title>PresentationsController</title>
<path fill="none" stroke="black" d="M352.5,99C352.5,99 517.5,99 517.5,99 523.5,99 529.5,93 529.5,87 529.5,87 529.5,17 529.5,17 529.5,11 523.5,5 517.5,5 517.5,5 352.5,5 352.5,5 346.5,5 340.5,11 340.5,17 340.5,17 340.5,87 340.5,87 340.5,93 346.5,99 352.5,99"/>
<text text-anchor="middle" x="435" y="20.2" font-family="Times,serif" font-size="14.00">PresentationsController</text>
<polyline fill="none" stroke="black" points="340.5,28 529.5,28 "/>
<polyline fill="none" stroke="black" points="340.5,52 529.5,52 "/>
<polyline fill="none" stroke="black" points="340.5,76 529.5,76 "/>
<text text-anchor="start" x="348.5" y="91.2" font-family="Times,serif" font-size="14.00">_layout</text>
</g>
<!-- ProjectsController -->
<g id="node11" class="node"><title>ProjectsController</title>
<path fill="none" stroke="black" d="M-268.5,259.5C-268.5,259.5 -143.5,259.5 -143.5,259.5 -137.5,259.5 -131.5,253.5 -131.5,247.5 -131.5,247.5 -131.5,58.5 -131.5,58.5 -131.5,52.5 -137.5,46.5 -143.5,46.5 -143.5,46.5 -268.5,46.5 -268.5,46.5 -274.5,46.5 -280.5,52.5 -280.5,58.5 -280.5,58.5 -280.5,247.5 -280.5,247.5 -280.5,253.5 -274.5,259.5 -268.5,259.5"/>
<text text-anchor="middle" x="-206" y="61.7" font-family="Times,serif" font-size="14.00">ProjectsController</text>
<polyline fill="none" stroke="black" points="-280.5,69.5 -131.5,69.5 "/>
<text text-anchor="start" x="-272.5" y="84.7" font-family="Times,serif" font-size="14.00">create</text>
<text text-anchor="start" x="-272.5" y="99.7" font-family="Times,serif" font-size="14.00">destroy</text>
<text text-anchor="start" x="-272.5" y="114.7" font-family="Times,serif" font-size="14.00">edit</text>
<text text-anchor="start" x="-272.5" y="129.7" font-family="Times,serif" font-size="14.00">index</text>
<text text-anchor="start" x="-272.5" y="144.7" font-family="Times,serif" font-size="14.00">new</text>
<text text-anchor="start" x="-272.5" y="159.7" font-family="Times,serif" font-size="14.00">show</text>
<text text-anchor="start" x="-272.5" y="174.7" font-family="Times,serif" font-size="14.00">update</text>
<polyline fill="none" stroke="black" points="-280.5,182.5 -131.5,182.5 "/>
<polyline fill="none" stroke="black" points="-280.5,206.5 -131.5,206.5 "/>
<text text-anchor="start" x="-272.5" y="221.7" font-family="Times,serif" font-size="14.00">_layout</text>
<text text-anchor="start" x="-272.5" y="236.7" font-family="Times,serif" font-size="14.00">project_params</text>
<text text-anchor="start" x="-272.5" y="251.7" font-family="Times,serif" font-size="14.00">set_project</text>
</g>
<!-- SchoolsController -->
<g id="node12" class="node"><title>SchoolsController</title>
<path fill="none" stroke="black" d="M332.5,-121C332.5,-121 453.5,-121 453.5,-121 459.5,-121 465.5,-127 465.5,-133 465.5,-133 465.5,-307 465.5,-307 465.5,-313 459.5,-319 453.5,-319 453.5,-319 332.5,-319 332.5,-319 326.5,-319 320.5,-313 320.5,-307 320.5,-307 320.5,-133 320.5,-133 320.5,-127 326.5,-121 332.5,-121"/>
<text text-anchor="middle" x="393" y="-303.8" font-family="Times,serif" font-size="14.00">SchoolsController</text>
<polyline fill="none" stroke="black" points="320.5,-296 465.5,-296 "/>
<text text-anchor="start" x="328.5" y="-280.8" font-family="Times,serif" font-size="14.00">create</text>
<text text-anchor="start" x="328.5" y="-265.8" font-family="Times,serif" font-size="14.00">destroy</text>
<text text-anchor="start" x="328.5" y="-250.8" font-family="Times,serif" font-size="14.00">edit</text>
<text text-anchor="start" x="328.5" y="-235.8" font-family="Times,serif" font-size="14.00">index</text>
<text text-anchor="start" x="328.5" y="-220.8" font-family="Times,serif" font-size="14.00">new</text>
<text text-anchor="start" x="328.5" y="-205.8" font-family="Times,serif" font-size="14.00">show</text>
<text text-anchor="start" x="328.5" y="-190.8" font-family="Times,serif" font-size="14.00">update</text>
<polyline fill="none" stroke="black" points="320.5,-183 465.5,-183 "/>
<polyline fill="none" stroke="black" points="320.5,-159 465.5,-159 "/>
<text text-anchor="start" x="328.5" y="-143.8" font-family="Times,serif" font-size="14.00">_layout</text>
<text text-anchor="start" x="328.5" y="-128.8" font-family="Times,serif" font-size="14.00">school_params</text>
</g>
</g>
</svg>
