<?xml version="1.0" encoding="UTF-8" standalone="no"?>
<!DOCTYPE svg PUBLIC "-//W3C//DTD SVG 1.1//EN"
 "http://www.w3.org/Graphics/SVG/1.1/DTD/svg11.dtd">
<!-- Generated by graphviz version 2.38.0 (20140413.2041)
 -->
<!-- Title: controllers_diagram Pages: 1 -->
<svg width="978pt" height="1000pt"
 viewBox="0.00 0.00 978.00 999.50" xmlns="http://www.w3.org/2000/svg" xmlns:xlink="http://www.w3.org/1999/xlink">
<g id="graph0" class="graph" transform="scale(1 1) rotate(0) translate(400 563.5)">
<title>controllers_diagram</title>
<polygon fill="none" stroke="none" points="-400,436 -400,-563.5 578,-563.5 578,436 -400,436"/>
<!-- _diagram_info -->
<g id="node1" class="node"><title>_diagram_info</title>
<text text-anchor="start" x="368" y="116.4" font-family="Times,serif" font-size="13.00">Controllers diagram</text>
<text text-anchor="start" x="368" y="130.4" font-family="Times,serif" font-size="13.00">Date: Jan 10 2017 &#45; 21:00</text>
<text text-anchor="start" x="368" y="144.4" font-family="Times,serif" font-size="13.00">Migration version: 20170102161923</text>
<text text-anchor="start" x="368" y="158.4" font-family="Times,serif" font-size="13.00">Generated by RailRoady 1.5.2</text>
<text text-anchor="start" x="368" y="172.4" font-family="Times,serif" font-size="13.00">http://railroady.prestonlee.com</text>
</g>
<!-- ApplicationController -->
<g id="node2" class="node"><title>ApplicationController</title>
<path fill="none" stroke="black" d="M-384,-217C-384,-217 -272,-217 -272,-217 -266,-217 -260,-223 -260,-229 -260,-229 -260,-299 -260,-299 -260,-305 -266,-311 -272,-311 -272,-311 -384,-311 -384,-311 -390,-311 -396,-305 -396,-299 -396,-299 -396,-229 -396,-229 -396,-223 -390,-217 -384,-217"/>
<text text-anchor="middle" x="-328" y="-295.8" font-family="Times,serif" font-size="14.00">ApplicationController</text>
<polyline fill="none" stroke="black" points="-396,-288 -260,-288 "/>
<polyline fill="none" stroke="black" points="-396,-264 -260,-264 "/>
<polyline fill="none" stroke="black" points="-396,-240 -260,-240 "/>
<text text-anchor="start" x="-388" y="-224.8" font-family="Times,serif" font-size="14.00">_layout</text>
</g>
<!-- CoursesController -->
<g id="node3" class="node"><title>CoursesController</title>
<path fill="none" stroke="black" d="M-150,341C-150,341 -58,341 -58,341 -52,341 -46,335 -46,329 -46,329 -46,155 -46,155 -46,149 -52,143 -58,143 -58,143 -150,143 -150,143 -156,143 -162,149 -162,155 -162,155 -162,329 -162,329 -162,335 -156,341 -150,341"/>
<text text-anchor="middle" x="-104" y="158.2" font-family="Times,serif" font-size="14.00">CoursesController</text>
<polyline fill="none" stroke="black" points="-162,166 -46,166 "/>
<text text-anchor="start" x="-154" y="181.2" font-family="Times,serif" font-size="14.00">create</text>
<text text-anchor="start" x="-154" y="196.2" font-family="Times,serif" font-size="14.00">destroy</text>
<text text-anchor="start" x="-154" y="211.2" font-family="Times,serif" font-size="14.00">edit</text>
<text text-anchor="start" x="-154" y="226.2" font-family="Times,serif" font-size="14.00">index</text>
<text text-anchor="start" x="-154" y="241.2" font-family="Times,serif" font-size="14.00">new</text>
<text text-anchor="start" x="-154" y="256.2" font-family="Times,serif" font-size="14.00">show</text>
<text text-anchor="start" x="-154" y="271.2" font-family="Times,serif" font-size="14.00">update</text>
<polyline fill="none" stroke="black" points="-162,279 -46,279 "/>
<polyline fill="none" stroke="black" points="-162,303 -46,303 "/>
<text text-anchor="start" x="-154" y="318.2" font-family="Times,serif" font-size="14.00">_layout</text>
<text text-anchor="start" x="-154" y="333.2" font-family="Times,serif" font-size="14.00">course_params</text>
</g>
<!-- CourseTypesController -->
<g id="node4" class="node"><title>CourseTypesController</title>
<path fill="none" stroke="black" d="M-41.5,-127C-41.5,-127 77.5,-127 77.5,-127 83.5,-127 89.5,-133 89.5,-139 89.5,-139 89.5,-313 89.5,-313 89.5,-319 83.5,-325 77.5,-325 77.5,-325 -41.5,-325 -41.5,-325 -47.5,-325 -53.5,-319 -53.5,-313 -53.5,-313 -53.5,-139 -53.5,-139 -53.5,-133 -47.5,-127 -41.5,-127"/>
<text text-anchor="middle" x="18" y="-309.8" font-family="Times,serif" font-size="14.00">CourseTypesController</text>
<polyline fill="none" stroke="black" points="-53.5,-302 89.5,-302 "/>
<text text-anchor="start" x="-45.5" y="-286.8" font-family="Times,serif" font-size="14.00">create</text>
<text text-anchor="start" x="-45.5" y="-271.8" font-family="Times,serif" font-size="14.00">destroy</text>
<text text-anchor="start" x="-45.5" y="-256.8" font-family="Times,serif" font-size="14.00">edit</text>
<text text-anchor="start" x="-45.5" y="-241.8" font-family="Times,serif" font-size="14.00">index</text>
<text text-anchor="start" x="-45.5" y="-226.8" font-family="Times,serif" font-size="14.00">new</text>
<text text-anchor="start" x="-45.5" y="-211.8" font-family="Times,serif" font-size="14.00">show</text>
<text text-anchor="start" x="-45.5" y="-196.8" font-family="Times,serif" font-size="14.00">update</text>
<polyline fill="none" stroke="black" points="-53.5,-189 89.5,-189 "/>
<polyline fill="none" stroke="black" points="-53.5,-165 89.5,-165 "/>
<text text-anchor="start" x="-45.5" y="-149.8" font-family="Times,serif" font-size="14.00">_layout</text>
<text text-anchor="start" x="-45.5" y="-134.8" font-family="Times,serif" font-size="14.00">coursetype_params</text>
</g>
<!-- CourseUnitsController -->
<g id="node5" class="node"><title>CourseUnitsController</title>
<path fill="none" stroke="black" d="M192,179C192,179 308,179 308,179 314,179 320,173 320,167 320,167 320,-7 320,-7 320,-13 314,-19 308,-19 308,-19 192,-19 192,-19 186,-19 180,-13 180,-7 180,-7 180,167 180,167 180,173 186,179 192,179"/>
<text text-anchor="middle" x="250" y="-3.8" font-family="Times,serif" font-size="14.00">CourseUnitsController</text>
<polyline fill="none" stroke="black" points="180,4 320,4 "/>
<text text-anchor="start" x="188" y="19.2" font-family="Times,serif" font-size="14.00">create</text>
<text text-anchor="start" x="188" y="34.2" font-family="Times,serif" font-size="14.00">destroy</text>
<text text-anchor="start" x="188" y="49.2" font-family="Times,serif" font-size="14.00">edit</text>
<text text-anchor="start" x="188" y="64.2" font-family="Times,serif" font-size="14.00">index</text>
<text text-anchor="start" x="188" y="79.2" font-family="Times,serif" font-size="14.00">new</text>
<text text-anchor="start" x="188" y="94.2" font-family="Times,serif" font-size="14.00">show</text>
<text text-anchor="start" x="188" y="109.2" font-family="Times,serif" font-size="14.00">update</text>
<polyline fill="none" stroke="black" points="180,117 320,117 "/>
<polyline fill="none" stroke="black" points="180,141 320,141 "/>
<text text-anchor="start" x="188" y="156.2" font-family="Times,serif" font-size="14.00">_layout</text>
<text text-anchor="start" x="188" y="171.2" font-family="Times,serif" font-size="14.00">course_unit_params</text>
</g>
<!-- DocumentsController -->
<g id="node6" class="node"><title>DocumentsController</title>
<path fill="none" stroke="black" d="M-204,-217C-204,-217 -94,-217 -94,-217 -88,-217 -82,-223 -82,-229 -82,-229 -82,-403 -82,-403 -82,-409 -88,-415 -94,-415 -94,-415 -204,-415 -204,-415 -210,-415 -216,-409 -216,-403 -216,-403 -216,-229 -216,-229 -216,-223 -210,-217 -204,-217"/>
<text text-anchor="middle" x="-149" y="-399.8" font-family="Times,serif" font-size="14.00">DocumentsController</text>
<polyline fill="none" stroke="black" points="-216,-392 -82,-392 "/>
<text text-anchor="start" x="-208" y="-376.8" font-family="Times,serif" font-size="14.00">create</text>
<text text-anchor="start" x="-208" y="-361.8" font-family="Times,serif" font-size="14.00">destroy</text>
<text text-anchor="start" x="-208" y="-346.8" font-family="Times,serif" font-size="14.00">edit</text>
<text text-anchor="start" x="-208" y="-331.8" font-family="Times,serif" font-size="14.00">index</text>
<text text-anchor="start" x="-208" y="-316.8" font-family="Times,serif" font-size="14.00">new</text>
<text text-anchor="start" x="-208" y="-301.8" font-family="Times,serif" font-size="14.00">show</text>
<text text-anchor="start" x="-208" y="-286.8" font-family="Times,serif" font-size="14.00">update</text>
<polyline fill="none" stroke="black" points="-216,-279 -82,-279 "/>
<polyline fill="none" stroke="black" points="-216,-255 -82,-255 "/>
<text text-anchor="start" x="-208" y="-239.8" font-family="Times,serif" font-size="14.00">_layout</text>
<text text-anchor="start" x="-208" y="-224.8" font-family="Times,serif" font-size="14.00">document_params</text>
</g>
<!-- HomeController -->
<g id="node7" class="node"><title>HomeController</title>
<path fill="none" stroke="black" d="M138,431.5C138,431.5 220,431.5 220,431.5 226,431.5 232,425.5 232,419.5 232,419.5 232,350.5 232,350.5 232,344.5 226,338.5 220,338.5 220,338.5 138,338.5 138,338.5 132,338.5 126,344.5 126,350.5 126,350.5 126,419.5 126,419.5 126,425.5 132,431.5 138,431.5"/>
<text text-anchor="middle" x="179" y="353.7" font-family="Times,serif" font-size="14.00">HomeController</text>
<polyline fill="none" stroke="black" points="126,361.5 232,361.5 "/>
<text text-anchor="start" x="134" y="376.7" font-family="Times,serif" font-size="14.00">index</text>
<polyline fill="none" stroke="black" points="126,384.5 232,384.5 "/>
<polyline fill="none" stroke="black" points="126,408.5 232,408.5 "/>
<text text-anchor="start" x="134" y="423.7" font-family="Times,serif" font-size="14.00">_layout</text>
</g>
<!-- InstitutionsController -->
<g id="node8" class="node"><title>InstitutionsController</title>
<path fill="none" stroke="black" d="M318.5,-55C318.5,-55 427.5,-55 427.5,-55 433.5,-55 439.5,-61 439.5,-67 439.5,-67 439.5,-241 439.5,-241 439.5,-247 433.5,-253 427.5,-253 427.5,-253 318.5,-253 318.5,-253 312.5,-253 306.5,-247 306.5,-241 306.5,-241 306.5,-67 306.5,-67 306.5,-61 312.5,-55 318.5,-55"/>
<text text-anchor="middle" x="373" y="-237.8" font-family="Times,serif" font-size="14.00">InstitutionsController</text>
<polyline fill="none" stroke="black" points="306.5,-230 439.5,-230 "/>
<text text-anchor="start" x="314.5" y="-214.8" font-family="Times,serif" font-size="14.00">create</text>
<text text-anchor="start" x="314.5" y="-199.8" font-family="Times,serif" font-size="14.00">destroy</text>
<text text-anchor="start" x="314.5" y="-184.8" font-family="Times,serif" font-size="14.00">edit</text>
<text text-anchor="start" x="314.5" y="-169.8" font-family="Times,serif" font-size="14.00">index</text>
<text text-anchor="start" x="314.5" y="-154.8" font-family="Times,serif" font-size="14.00">new</text>
<text text-anchor="start" x="314.5" y="-139.8" font-family="Times,serif" font-size="14.00">show</text>
<text text-anchor="start" x="314.5" y="-124.8" font-family="Times,serif" font-size="14.00">update</text>
<polyline fill="none" stroke="black" points="306.5,-117 439.5,-117 "/>
<polyline fill="none" stroke="black" points="306.5,-93 439.5,-93 "/>
<text text-anchor="start" x="314.5" y="-77.8" font-family="Times,serif" font-size="14.00">_layout</text>
<text text-anchor="start" x="314.5" y="-62.8" font-family="Times,serif" font-size="14.00">institution_params</text>
</g>
<!-- PeopleController -->
<g id="node9" class="node"><title>PeopleController</title>
<path fill="none" stroke="black" d="M174.5,-361C174.5,-361 259.5,-361 259.5,-361 265.5,-361 271.5,-367 271.5,-373 271.5,-373 271.5,-547 271.5,-547 271.5,-553 265.5,-559 259.5,-559 259.5,-559 174.5,-559 174.5,-559 168.5,-559 162.5,-553 162.5,-547 162.5,-547 162.5,-373 162.5,-373 162.5,-367 168.5,-361 174.5,-361"/>
<text text-anchor="middle" x="217" y="-543.8" font-family="Times,serif" font-size="14.00">PeopleController</text>
<polyline fill="none" stroke="black" points="162.5,-536 271.5,-536 "/>
<text text-anchor="start" x="170.5" y="-520.8" font-family="Times,serif" font-size="14.00">create</text>
<text text-anchor="start" x="170.5" y="-505.8" font-family="Times,serif" font-size="14.00">destroy</text>
<text text-anchor="start" x="170.5" y="-490.8" font-family="Times,serif" font-size="14.00">edit</text>
<text text-anchor="start" x="170.5" y="-475.8" font-family="Times,serif" font-size="14.00">index</text>
<text text-anchor="start" x="170.5" y="-460.8" font-family="Times,serif" font-size="14.00">new</text>
<text text-anchor="start" x="170.5" y="-445.8" font-family="Times,serif" font-size="14.00">show</text>
<text text-anchor="start" x="170.5" y="-430.8" font-family="Times,serif" font-size="14.00">update</text>
<polyline fill="none" stroke="black" points="162.5,-423 271.5,-423 "/>
<polyline fill="none" stroke="black" points="162.5,-399 271.5,-399 "/>
<text text-anchor="start" x="170.5" y="-383.8" font-family="Times,serif" font-size="14.00">_layout</text>
<text text-anchor="start" x="170.5" y="-368.8" font-family="Times,serif" font-size="14.00">person_params</text>
</g>
<!-- PersonTypesController -->
<g id="node10" class="node"><title>PersonTypesController</title>
<path fill="none" stroke="black" d="M318,-289C318,-289 436,-289 436,-289 442,-289 448,-295 448,-301 448,-301 448,-475 448,-475 448,-481 442,-487 436,-487 436,-487 318,-487 318,-487 312,-487 306,-481 306,-475 306,-475 306,-301 306,-301 306,-295 312,-289 318,-289"/>
<text text-anchor="middle" x="377" y="-471.8" font-family="Times,serif" font-size="14.00">PersonTypesController</text>
<polyline fill="none" stroke="black" points="306,-464 448,-464 "/>
<text text-anchor="start" x="314" y="-448.8" font-family="Times,serif" font-size="14.00">create</text>
<text text-anchor="start" x="314" y="-433.8" font-family="Times,serif" font-size="14.00">destroy</text>
<text text-anchor="start" x="314" y="-418.8" font-family="Times,serif" font-size="14.00">edit</text>
<text text-anchor="start" x="314" y="-403.8" font-family="Times,serif" font-size="14.00">index</text>
<text text-anchor="start" x="314" y="-388.8" font-family="Times,serif" font-size="14.00">new</text>
<text text-anchor="start" x="314" y="-373.8" font-family="Times,serif" font-size="14.00">show</text>
<text text-anchor="start" x="314" y="-358.8" font-family="Times,serif" font-size="14.00">update</text>
<polyline fill="none" stroke="black" points="306,-351 448,-351 "/>
<polyline fill="none" stroke="black" points="306,-327 448,-327 "/>
<text text-anchor="start" x="314" y="-311.8" font-family="Times,serif" font-size="14.00">_layout</text>
<text text-anchor="start" x="314" y="-296.8" font-family="Times,serif" font-size="14.00">persontype_params</text>
</g>
<!-- PresentationsController -->
<g id="node11" class="node"><title>PresentationsController</title>
<path fill="none" stroke="black" d="M-330,17C-330,17 -210,17 -210,17 -204,17 -198,11 -198,5 -198,5 -198,-169 -198,-169 -198,-175 -204,-181 -210,-181 -210,-181 -330,-181 -330,-181 -336,-181 -342,-175 -342,-169 -342,-169 -342,5 -342,5 -342,11 -336,17 -330,17"/>
<text text-anchor="middle" x="-270" y="-165.8" font-family="Times,serif" font-size="14.00">PresentationsController</text>
<polyline fill="none" stroke="black" points="-342,-158 -198,-158 "/>
<text text-anchor="start" x="-334" y="-142.8" font-family="Times,serif" font-size="14.00">create</text>
<text text-anchor="start" x="-334" y="-127.8" font-family="Times,serif" font-size="14.00">destroy</text>
<text text-anchor="start" x="-334" y="-112.8" font-family="Times,serif" font-size="14.00">edit</text>
<text text-anchor="start" x="-334" y="-97.8" font-family="Times,serif" font-size="14.00">index</text>
<text text-anchor="start" x="-334" y="-82.8" font-family="Times,serif" font-size="14.00">new</text>
<text text-anchor="start" x="-334" y="-67.8" font-family="Times,serif" font-size="14.00">show</text>
<text text-anchor="start" x="-334" y="-52.8" font-family="Times,serif" font-size="14.00">update</text>
<polyline fill="none" stroke="black" points="-342,-45 -198,-45 "/>
<polyline fill="none" stroke="black" points="-342,-21 -198,-21 "/>
<text text-anchor="start" x="-334" y="-5.8" font-family="Times,serif" font-size="14.00">_layout</text>
<text text-anchor="start" x="-334" y="9.2" font-family="Times,serif" font-size="14.00">presentation_params</text>
</g>
<!-- ProjectsController -->
<g id="node12" class="node"><title>ProjectsController</title>
<path fill="none" stroke="black" d="M-294,269.5C-294,269.5 -202,269.5 -202,269.5 -196,269.5 -190,263.5 -190,257.5 -190,257.5 -190,68.5 -190,68.5 -190,62.5 -196,56.5 -202,56.5 -202,56.5 -294,56.5 -294,56.5 -300,56.5 -306,62.5 -306,68.5 -306,68.5 -306,257.5 -306,257.5 -306,263.5 -300,269.5 -294,269.5"/>
<text text-anchor="middle" x="-248" y="71.7" font-family="Times,serif" font-size="14.00">ProjectsController</text>
<polyline fill="none" stroke="black" points="-306,79.5 -190,79.5 "/>
<text text-anchor="start" x="-298" y="94.7" font-family="Times,serif" font-size="14.00">create</text>
<text text-anchor="start" x="-298" y="109.7" font-family="Times,serif" font-size="14.00">destroy</text>
<text text-anchor="start" x="-298" y="124.7" font-family="Times,serif" font-size="14.00">edit</text>
<text text-anchor="start" x="-298" y="139.7" font-family="Times,serif" font-size="14.00">index</text>
<text text-anchor="start" x="-298" y="154.7" font-family="Times,serif" font-size="14.00">new</text>
<text text-anchor="start" x="-298" y="169.7" font-family="Times,serif" font-size="14.00">show</text>
<text text-anchor="start" x="-298" y="184.7" font-family="Times,serif" font-size="14.00">update</text>
<polyline fill="none" stroke="black" points="-306,192.5 -190,192.5 "/>
<polyline fill="none" stroke="black" points="-306,216.5 -190,216.5 "/>
<text text-anchor="start" x="-298" y="231.7" font-family="Times,serif" font-size="14.00">_layout</text>
<text text-anchor="start" x="-298" y="246.7" font-family="Times,serif" font-size="14.00">project_params</text>
<text text-anchor="start" x="-298" y="261.7" font-family="Times,serif" font-size="14.00">set_project</text>
</g>
<!-- ProjectImagesController -->
<g id="node13" class="node"><title>ProjectImagesController</title>
<path fill="none" stroke="black" d="M138,-127C138,-127 264,-127 264,-127 270,-127 276,-133 276,-139 276,-139 276,-313 276,-313 276,-319 270,-325 264,-325 264,-325 138,-325 138,-325 132,-325 126,-319 126,-313 126,-313 126,-139 126,-139 126,-133 132,-127 138,-127"/>
<text text-anchor="middle" x="201" y="-309.8" font-family="Times,serif" font-size="14.00">ProjectImagesController</text>
<polyline fill="none" stroke="black" points="126,-302 276,-302 "/>
<text text-anchor="start" x="134" y="-286.8" font-family="Times,serif" font-size="14.00">create</text>
<text text-anchor="start" x="134" y="-271.8" font-family="Times,serif" font-size="14.00">destroy</text>
<text text-anchor="start" x="134" y="-256.8" font-family="Times,serif" font-size="14.00">edit</text>
<text text-anchor="start" x="134" y="-241.8" font-family="Times,serif" font-size="14.00">index</text>
<text text-anchor="start" x="134" y="-226.8" font-family="Times,serif" font-size="14.00">new</text>
<text text-anchor="start" x="134" y="-211.8" font-family="Times,serif" font-size="14.00">show</text>
<text text-anchor="start" x="134" y="-196.8" font-family="Times,serif" font-size="14.00">update</text>
<polyline fill="none" stroke="black" points="126,-189 276,-189 "/>
<polyline fill="none" stroke="black" points="126,-165 276,-165 "/>
<text text-anchor="start" x="134" y="-149.8" font-family="Times,serif" font-size="14.00">_layout</text>
<text text-anchor="start" x="134" y="-134.8" font-family="Times,serif" font-size="14.00">projectimage_params</text>
</g>
<!-- SchoolsController -->
<g id="node14" class="node"><title>SchoolsController</title>
<path fill="none" stroke="black" d="M-6.5,341C-6.5,341 84.5,341 84.5,341 90.5,341 96.5,335 96.5,329 96.5,329 96.5,155 96.5,155 96.5,149 90.5,143 84.5,143 84.5,143 -6.5,143 -6.5,143 -12.5,143 -18.5,149 -18.5,155 -18.5,155 -18.5,329 -18.5,329 -18.5,335 -12.5,341 -6.5,341"/>
<text text-anchor="middle" x="39" y="158.2" font-family="Times,serif" font-size="14.00">SchoolsController</text>
<polyline fill="none" stroke="black" points="-18.5,166 96.5,166 "/>
<text text-anchor="start" x="-10.5" y="181.2" font-family="Times,serif" font-size="14.00">create</text>
<text text-anchor="start" x="-10.5" y="196.2" font-family="Times,serif" font-size="14.00">destroy</text>
<text text-anchor="start" x="-10.5" y="211.2" font-family="Times,serif" font-size="14.00">edit</text>
<text text-anchor="start" x="-10.5" y="226.2" font-family="Times,serif" font-size="14.00">index</text>
<text text-anchor="start" x="-10.5" y="241.2" font-family="Times,serif" font-size="14.00">new</text>
<text text-anchor="start" x="-10.5" y="256.2" font-family="Times,serif" font-size="14.00">show</text>
<text text-anchor="start" x="-10.5" y="271.2" font-family="Times,serif" font-size="14.00">update</text>
<polyline fill="none" stroke="black" points="-18.5,279 96.5,279 "/>
<polyline fill="none" stroke="black" points="-18.5,303 96.5,303 "/>
<text text-anchor="start" x="-10.5" y="318.2" font-family="Times,serif" font-size="14.00">_layout</text>
<text text-anchor="start" x="-10.5" y="333.2" font-family="Times,serif" font-size="14.00">school_params</text>
</g>
<!-- TagsController -->
<g id="node15" class="node"><title>TagsController</title>
<path fill="none" stroke="black" d="M-330,-342.5C-330,-342.5 -256,-342.5 -256,-342.5 -250,-342.5 -244,-348.5 -244,-354.5 -244,-354.5 -244,-543.5 -244,-543.5 -244,-549.5 -250,-555.5 -256,-555.5 -256,-555.5 -330,-555.5 -330,-555.5 -336,-555.5 -342,-549.5 -342,-543.5 -342,-543.5 -342,-354.5 -342,-354.5 -342,-348.5 -336,-342.5 -330,-342.5"/>
<text text-anchor="middle" x="-293" y="-540.3" font-family="Times,serif" font-size="14.00">TagsController</text>
<polyline fill="none" stroke="black" points="-342,-532.5 -244,-532.5 "/>
<text text-anchor="start" x="-334" y="-517.3" font-family="Times,serif" font-size="14.00">create</text>
<text text-anchor="start" x="-334" y="-502.3" font-family="Times,serif" font-size="14.00">destroy</text>
<text text-anchor="start" x="-334" y="-487.3" font-family="Times,serif" font-size="14.00">edit</text>
<text text-anchor="start" x="-334" y="-472.3" font-family="Times,serif" font-size="14.00">index</text>
<text text-anchor="start" x="-334" y="-457.3" font-family="Times,serif" font-size="14.00">new</text>
<text text-anchor="start" x="-334" y="-442.3" font-family="Times,serif" font-size="14.00">show</text>
<text text-anchor="start" x="-334" y="-427.3" font-family="Times,serif" font-size="14.00">update</text>
<polyline fill="none" stroke="black" points="-342,-419.5 -244,-419.5 "/>
<polyline fill="none" stroke="black" points="-342,-395.5 -244,-395.5 "/>
<text text-anchor="start" x="-334" y="-380.3" font-family="Times,serif" font-size="14.00">_layout</text>
<text text-anchor="start" x="-334" y="-365.3" font-family="Times,serif" font-size="14.00">set_tag</text>
<text text-anchor="start" x="-334" y="-350.3" font-family="Times,serif" font-size="14.00">tag_params</text>
</g>
<!-- Users::ConfirmationsController -->
<g id="node16" class="node"><title>Users::ConfirmationsController</title>
<path fill="none" stroke="black" d="M372.5,71C372.5,71 537.5,71 537.5,71 543.5,71 549.5,65 549.5,59 549.5,59 549.5,-11 549.5,-11 549.5,-17 543.5,-23 537.5,-23 537.5,-23 372.5,-23 372.5,-23 366.5,-23 360.5,-17 360.5,-11 360.5,-11 360.5,59 360.5,59 360.5,65 366.5,71 372.5,71"/>
<text text-anchor="middle" x="455" y="-7.8" font-family="Times,serif" font-size="14.00">Users::ConfirmationsController</text>
<polyline fill="none" stroke="black" points="360.5,-0 549.5,-0 "/>
<polyline fill="none" stroke="black" points="360.5,24 549.5,24 "/>
<polyline fill="none" stroke="black" points="360.5,48 549.5,48 "/>
<text text-anchor="start" x="368.5" y="63.2" font-family="Times,serif" font-size="14.00">_layout</text>
</g>
<!-- Users::OmniauthCallbacksController -->
<g id="node17" class="node"><title>Users::OmniauthCallbacksController</title>
<path fill="none" stroke="black" d="M138,305C138,305 332,305 332,305 338,305 344,299 344,293 344,293 344,223 344,223 344,217 338,211 332,211 332,211 138,211 138,211 132,211 126,217 126,223 126,223 126,293 126,293 126,299 132,305 138,305"/>
<text text-anchor="middle" x="235" y="226.2" font-family="Times,serif" font-size="14.00">Users::OmniauthCallbacksController</text>
<polyline fill="none" stroke="black" points="126,234 344,234 "/>
<polyline fill="none" stroke="black" points="126,258 344,258 "/>
<polyline fill="none" stroke="black" points="126,282 344,282 "/>
<text text-anchor="start" x="134" y="297.2" font-family="Times,serif" font-size="14.00">_layout</text>
</g>
<!-- Users::PasswordsController -->
<g id="node18" class="node"><title>Users::PasswordsController</title>
<path fill="none" stroke="black" d="M-150,107.5C-150,107.5 128,107.5 128,107.5 134,107.5 140,101.5 140,95.5 140,95.5 140,-77.5 140,-77.5 140,-83.5 134,-89.5 128,-89.5 128,-89.5 -150,-89.5 -150,-89.5 -156,-89.5 -162,-83.5 -162,-77.5 -162,-77.5 -162,95.5 -162,95.5 -162,101.5 -156,107.5 -150,107.5"/>
<text text-anchor="middle" x="-11" y="-74.3" font-family="Times,serif" font-size="14.00">Users::PasswordsController</text>
<polyline fill="none" stroke="black" points="-162,-66.5 140,-66.5 "/>
<text text-anchor="start" x="-154" y="-51.3" font-family="Times,serif" font-size="14.00">create</text>
<text text-anchor="start" x="-154" y="-36.3" font-family="Times,serif" font-size="14.00">edit</text>
<text text-anchor="start" x="-154" y="-21.3" font-family="Times,serif" font-size="14.00">new</text>
<text text-anchor="start" x="-154" y="-6.3" font-family="Times,serif" font-size="14.00">update</text>
<polyline fill="none" stroke="black" points="-162,1.5 140,1.5 "/>
<text text-anchor="start" x="-154" y="16.7" font-family="Times,serif" font-size="14.00">after_resetting_password_path_for</text>
<text text-anchor="start" x="-154" y="31.7" font-family="Times,serif" font-size="14.00">after_sending_reset_password_instructions_path_for</text>
<text text-anchor="start" x="-154" y="46.7" font-family="Times,serif" font-size="14.00">assert_reset_token_passed</text>
<text text-anchor="start" x="-154" y="61.7" font-family="Times,serif" font-size="14.00">translation_scope</text>
<text text-anchor="start" x="-154" y="76.7" font-family="Times,serif" font-size="14.00">unlockable?</text>
<polyline fill="none" stroke="black" points="-162,84.5 140,84.5 "/>
<text text-anchor="start" x="-154" y="99.7" font-family="Times,serif" font-size="14.00">_layout</text>
</g>
<!-- Users::RegistrationsController -->
<g id="node19" class="node"><title>Users::RegistrationsController</title>
<path fill="none" stroke="black" d="M-42,-361C-42,-361 116,-361 116,-361 122,-361 128,-367 128,-373 128,-373 128,-443 128,-443 128,-449 122,-455 116,-455 116,-455 -42,-455 -42,-455 -48,-455 -54,-449 -54,-443 -54,-443 -54,-373 -54,-373 -54,-367 -48,-361 -42,-361"/>
<text text-anchor="middle" x="37" y="-439.8" font-family="Times,serif" font-size="14.00">Users::RegistrationsController</text>
<polyline fill="none" stroke="black" points="-54,-432 128,-432 "/>
<polyline fill="none" stroke="black" points="-54,-408 128,-408 "/>
<polyline fill="none" stroke="black" points="-54,-384 128,-384 "/>
<text text-anchor="start" x="-46" y="-368.8" font-family="Times,serif" font-size="14.00">_layout</text>
</g>
<!-- Users::SessionsController -->
<g id="node20" class="node"><title>Users::SessionsController</title>
<path fill="none" stroke="black" d="M390.5,378C390.5,378 523.5,378 523.5,378 529.5,378 535.5,372 535.5,366 535.5,366 535.5,266 535.5,266 535.5,260 529.5,254 523.5,254 523.5,254 390.5,254 390.5,254 384.5,254 378.5,260 378.5,266 378.5,266 378.5,366 378.5,366 378.5,372 384.5,378 390.5,378"/>
<text text-anchor="middle" x="457" y="269.2" font-family="Times,serif" font-size="14.00">Users::SessionsController</text>
<polyline fill="none" stroke="black" points="378.5,277 535.5,277 "/>
<polyline fill="none" stroke="black" points="378.5,301 535.5,301 "/>
<polyline fill="none" stroke="black" points="378.5,325 535.5,325 "/>
<text text-anchor="start" x="386.5" y="340.2" font-family="Times,serif" font-size="14.00">_layout</text>
<text text-anchor="start" x="386.5" y="355.2" font-family="Times,serif" font-size="14.00">godbye_message</text>
<text text-anchor="start" x="386.5" y="370.2" font-family="Times,serif" font-size="14.00">welcome_message</text>
</g>
<!-- Users::UnlocksController -->
<g id="node21" class="node"><title>Users::UnlocksController</title>
<path fill="none" stroke="black" d="M-383.5,395C-383.5,395 -252.5,395 -252.5,395 -246.5,395 -240.5,389 -240.5,383 -240.5,383 -240.5,313 -240.5,313 -240.5,307 -246.5,301 -252.5,301 -252.5,301 -383.5,301 -383.5,301 -389.5,301 -395.5,307 -395.5,313 -395.5,313 -395.5,383 -395.5,383 -395.5,389 -389.5,395 -383.5,395"/>
<text text-anchor="middle" x="-318" y="316.2" font-family="Times,serif" font-size="14.00">Users::UnlocksController</text>
<polyline fill="none" stroke="black" points="-395.5,324 -240.5,324 "/>
<polyline fill="none" stroke="black" points="-395.5,348 -240.5,348 "/>
<polyline fill="none" stroke="black" points="-395.5,372 -240.5,372 "/>
<text text-anchor="start" x="-387.5" y="387.2" font-family="Times,serif" font-size="14.00">_layout</text>
</g>
<!-- UsersController -->
<g id="node22" class="node"><title>UsersController</title>
<path fill="none" stroke="black" d="M-185.5,-451C-185.5,-451 -106.5,-451 -106.5,-451 -100.5,-451 -94.5,-457 -94.5,-463 -94.5,-463 -94.5,-533 -94.5,-533 -94.5,-539 -100.5,-545 -106.5,-545 -106.5,-545 -185.5,-545 -185.5,-545 -191.5,-545 -197.5,-539 -197.5,-533 -197.5,-533 -197.5,-463 -197.5,-463 -197.5,-457 -191.5,-451 -185.5,-451"/>
<text text-anchor="middle" x="-146" y="-529.8" font-family="Times,serif" font-size="14.00">UsersController</text>
<polyline fill="none" stroke="black" points="-197.5,-522 -94.5,-522 "/>
<polyline fill="none" stroke="black" points="-197.5,-498 -94.5,-498 "/>
<polyline fill="none" stroke="black" points="-197.5,-474 -94.5,-474 "/>
<text text-anchor="start" x="-189.5" y="-458.8" font-family="Times,serif" font-size="14.00">_layout</text>
</g>
</g>
</svg>
