<?xml version="1.0" encoding="UTF-8" standalone="no"?>
<!DOCTYPE svg PUBLIC "-//W3C//DTD SVG 1.1//EN"
 "http://www.w3.org/Graphics/SVG/1.1/DTD/svg11.dtd">
<!-- Generated by graphviz version 2.38.0 (20140413.2041)
 -->
<!-- Title: models_diagram Pages: 1 -->
<svg width="829pt" height="552pt"
 viewBox="0.00 0.00 828.99 552.00" xmlns="http://www.w3.org/2000/svg" xmlns:xlink="http://www.w3.org/1999/xlink">
<g id="graph0" class="graph" transform="scale(1 1) rotate(0) translate(4 548)">
<title>models_diagram</title>
<polygon fill="none" stroke="none" points="-4,4 -4,-548 824.995,-548 824.995,4 -4,4"/>
<!-- _diagram_info -->
<g id="node1" class="node"><title>_diagram_info</title>
<text text-anchor="start" x="8" y="-529.6" font-family="Times,serif" font-size="13.00">Models diagram</text>
<text text-anchor="start" x="8" y="-515.6" font-family="Times,serif" font-size="13.00">Date: Dec 22 2016 &#45; 03:25</text>
<text text-anchor="start" x="8" y="-501.6" font-family="Times,serif" font-size="13.00">Migration version: 20161222022551</text>
<text text-anchor="start" x="8" y="-487.6" font-family="Times,serif" font-size="13.00">Generated by RailRoady 1.5.2</text>
<text text-anchor="start" x="8" y="-473.6" font-family="Times,serif" font-size="13.00">http://railroady.prestonlee.com</text>
</g>
<!-- ApplicationRecord -->
<g id="node2" class="node"><title>ApplicationRecord</title>
<ellipse fill="none" stroke="black" cx="371.5" cy="-505" rx="96.6831" ry="18"/>
<text text-anchor="middle" x="371.5" y="-501.3" font-family="Times,serif" font-size="14.00">ApplicationRecord</text>
</g>
<!-- Course -->
<g id="node3" class="node"><title>Course</title>
<ellipse fill="none" stroke="black" cx="437.5" cy="-338" rx="44.393" ry="18"/>
<text text-anchor="middle" x="437.5" y="-334.3" font-family="Times,serif" font-size="14.00">Course</text>
</g>
<!-- CourseUnit -->
<g id="node5" class="node"><title>CourseUnit</title>
<ellipse fill="none" stroke="black" cx="454.5" cy="-265" rx="63.8893" ry="18"/>
<text text-anchor="middle" x="454.5" y="-261.3" font-family="Times,serif" font-size="14.00">CourseUnit</text>
</g>
<!-- Course&#45;&gt;CourseUnit -->
<g id="edge1" class="edge"><title>Course&#45;&gt;CourseUnit</title>
<path fill="none" stroke="#26194a" d="M443.536,-311.791C444.998,-305.683 446.567,-299.13 448.048,-292.946"/>
<ellipse fill="none" stroke="#26194a" cx="442.547" cy="-315.923" rx="4.00001" ry="4.00001"/>
<polygon fill="#26194a" stroke="#26194a" points="448.094,-292.754 454.799,-284.077 449.258,-287.891 450.423,-283.029 450.423,-283.029 450.423,-283.029 449.258,-287.891 446.046,-281.981 448.094,-292.754 448.094,-292.754"/>
</g>
<!-- Project -->
<g id="node11" class="node"><title>Project</title>
<ellipse fill="none" stroke="black" cx="516.5" cy="-192" rx="44.393" ry="18"/>
<text text-anchor="middle" x="516.5" y="-188.3" font-family="Times,serif" font-size="14.00">Project</text>
</g>
<!-- Course&#45;&gt;Project -->
<g id="edge2" class="edge"><title>Course&#45;&gt;Project</title>
<path fill="none" stroke="#8d4a6a" d="M407.106,-315.801C396.985,-306.953 386.918,-295.751 381.5,-283 375.243,-268.274 372.53,-260.249 381.5,-247 400,-219.675 434.807,-206.176 464.444,-199.508"/>
<polygon fill="#8d4a6a" stroke="#8d4a6a" points="407.405,-316.046 412.297,-325.86 411.276,-319.211 415.146,-322.377 415.146,-322.377 415.146,-322.377 411.276,-319.211 417.995,-318.893 407.405,-316.046 407.405,-316.046"/>
<polygon fill="#8d4a6a" stroke="#8d4a6a" points="464.469,-199.503 475.168,-201.907 469.367,-198.5 474.266,-197.498 474.266,-197.498 474.266,-197.498 469.367,-198.5 473.364,-193.089 464.469,-199.503 464.469,-199.503"/>
</g>
<!-- CourseType -->
<g id="node4" class="node"><title>CourseType</title>
<ellipse fill="none" stroke="black" cx="420.5" cy="-411" rx="66.0889" ry="18"/>
<text text-anchor="middle" x="420.5" y="-407.3" font-family="Times,serif" font-size="14.00">CourseType</text>
</g>
<!-- CourseType&#45;&gt;Course -->
<g id="edge3" class="edge"><title>CourseType&#45;&gt;Course</title>
<path fill="none" stroke="#eb54ae" d="M426.536,-384.791C427.998,-378.683 429.567,-372.13 431.048,-365.946"/>
<ellipse fill="none" stroke="#eb54ae" cx="425.547" cy="-388.923" rx="4.00001" ry="4.00001"/>
<polygon fill="#eb54ae" stroke="#eb54ae" points="431.094,-365.754 437.799,-357.077 432.258,-360.891 433.423,-356.029 433.423,-356.029 433.423,-356.029 432.258,-360.891 429.046,-354.981 431.094,-365.754 431.094,-365.754"/>
</g>
<!-- CourseUnit&#45;&gt;Project -->
<g id="edge4" class="edge"><title>CourseUnit&#45;&gt;Project</title>
<path fill="none" stroke="#e9b7db" d="M474.612,-240.968C481.259,-233.357 488.67,-224.87 495.389,-217.176"/>
<ellipse fill="none" stroke="#e9b7db" cx="471.824" cy="-244.161" rx="4.00002" ry="4.00002"/>
<polygon fill="#e9b7db" stroke="#e9b7db" points="495.762,-216.749 505.729,-212.176 499.05,-212.983 502.339,-209.217 502.339,-209.217 502.339,-209.217 499.05,-212.983 498.95,-206.257 495.762,-216.749 495.762,-216.749"/>
</g>
<!-- Document -->
<g id="node6" class="node"><title>Document</title>
<ellipse fill="none" stroke="black" cx="762.5" cy="-105" rx="58.4896" ry="18"/>
<text text-anchor="middle" x="762.5" y="-101.3" font-family="Times,serif" font-size="14.00">Document</text>
</g>
<!-- Institution -->
<g id="node7" class="node"><title>Institution</title>
<ellipse fill="none" stroke="black" cx="546.5" cy="-505" rx="59.5901" ry="18"/>
<text text-anchor="middle" x="546.5" y="-501.3" font-family="Times,serif" font-size="14.00">Institution</text>
</g>
<!-- School -->
<g id="node12" class="node"><title>School</title>
<ellipse fill="none" stroke="black" cx="546.5" cy="-411" rx="41.6928" ry="18"/>
<text text-anchor="middle" x="546.5" y="-407.3" font-family="Times,serif" font-size="14.00">School</text>
</g>
<!-- Institution&#45;&gt;School -->
<g id="edge5" class="edge"><title>Institution&#45;&gt;School</title>
<path fill="none" stroke="#15def9" d="M546.5,-478.451C546.5,-466.315 546.5,-451.795 546.5,-439.427"/>
<ellipse fill="none" stroke="#15def9" cx="546.5" cy="-482.696" rx="4" ry="4"/>
<polygon fill="#15def9" stroke="#15def9" points="546.5,-439.227 551,-429.227 546.5,-434.227 546.5,-429.227 546.5,-429.227 546.5,-429.227 546.5,-434.227 542,-429.227 546.5,-439.227 546.5,-439.227"/>
</g>
<!-- Person -->
<g id="node8" class="node"><title>Person</title>
<ellipse fill="none" stroke="black" cx="449.5" cy="-105" rx="42.4939" ry="18"/>
<text text-anchor="middle" x="449.5" y="-101.3" font-family="Times,serif" font-size="14.00">Person</text>
</g>
<!-- PersonType -->
<g id="node9" class="node"><title>PersonType</title>
<ellipse fill="none" stroke="black" cx="407.5" cy="-18" rx="64.9885" ry="18"/>
<text text-anchor="middle" x="407.5" y="-14.3" font-family="Times,serif" font-size="14.00">PersonType</text>
</g>
<!-- Person&#45;&gt;PersonType -->
<g id="edge7" class="edge"><title>Person&#45;&gt;PersonType</title>
<path fill="none" stroke="#cf19f1" d="M428.06,-81.334C425.727,-77.2527 423.512,-73.0184 421.5,-69 417.457,-60.9263 413.265,-52 410.037,-43.9507"/>
<ellipse fill="none" stroke="#cf19f1" cx="430.293" cy="-85.0157" rx="4.00002" ry="4.00002"/>
<ellipse fill="#cf19f1" stroke="#cf19f1" cx="408.568" cy="-40.0064" rx="4.00001" ry="4.00001"/>
</g>
<!-- Presentation -->
<g id="node10" class="node"><title>Presentation</title>
<ellipse fill="none" stroke="black" cx="620.5" cy="-18" rx="70.3881" ry="18"/>
<text text-anchor="middle" x="620.5" y="-14.3" font-family="Times,serif" font-size="14.00">Presentation</text>
</g>
<!-- Person&#45;&gt;Presentation -->
<g id="edge9" class="edge"><title>Person&#45;&gt;Presentation</title>
<path fill="none" stroke="#1c925d" d="M443.925,-76.8677C443.752,-68.7213 445.269,-60.2888 450.5,-54 462.776,-39.2426 504.941,-30.505 544.204,-25.4507"/>
<polygon fill="#1c925d" stroke="#1c925d" points="443.928,-76.8974 440.417,-87.2858 444.412,-81.8739 444.895,-86.8505 444.895,-86.8505 444.895,-86.8505 444.412,-81.8739 449.374,-86.4152 443.928,-76.8974 443.928,-76.8974"/>
<polygon fill="#1c925d" stroke="#1c925d" points="544.443,-25.4217 554.913,-28.68 549.406,-24.8173 554.369,-24.2129 554.369,-24.2129 554.369,-24.2129 549.406,-24.8173 553.826,-19.7459 544.443,-25.4217 544.443,-25.4217"/>
<text text-anchor="middle" x="524.5" y="-57.8" font-family="Times,serif" font-size="14.00">juried_presentations</text>
</g>
<!-- Person&#45;&gt;Project -->
<g id="edge6" class="edge"><title>Person&#45;&gt;Project</title>
<path fill="none" stroke="#3ff492" d="M468.585,-130.213C477.594,-141.641 488.32,-155.249 497.338,-166.69"/>
<polygon fill="#3ff492" stroke="#3ff492" points="468.569,-130.192 465.913,-119.553 465.474,-126.265 462.379,-122.339 462.379,-122.339 462.379,-122.339 465.474,-126.265 458.845,-125.124 468.569,-130.192 468.569,-130.192"/>
<polygon fill="#3ff492" stroke="#3ff492" points="497.391,-166.758 500.048,-177.397 500.486,-170.684 503.582,-174.611 503.582,-174.611 503.582,-174.611 500.486,-170.684 507.116,-171.825 497.391,-166.758 497.391,-166.758"/>
</g>
<!-- Person&#45;&gt;Project -->
<g id="edge8" class="edge"><title>Person&#45;&gt;Project</title>
<path fill="none" stroke="#6a83b7" d="M480.52,-126.781C485.604,-131.081 490.507,-135.877 494.5,-141 499.889,-147.913 504.254,-156.351 507.632,-164.312"/>
<polygon fill="#6a83b7" stroke="#6a83b7" points="480.343,-126.641 475.27,-116.919 476.415,-123.548 472.486,-120.455 472.486,-120.455 472.486,-120.455 476.415,-123.548 469.702,-123.99 480.343,-126.641 480.343,-126.641"/>
<polygon fill="#6a83b7" stroke="#6a83b7" points="507.64,-164.333 507.073,-175.284 509.453,-168.993 511.266,-173.652 511.266,-173.652 511.266,-173.652 509.453,-168.993 515.46,-172.021 507.64,-164.333 507.64,-164.333"/>
<text text-anchor="middle" x="575" y="-144.8" font-family="Times,serif" font-size="14.00">supervised_projects</text>
</g>
<!-- PersonType&#45;&gt;Person -->
<g id="edge10" class="edge"><title>PersonType&#45;&gt;Person</title>
<path fill="none" stroke="#59614f" d="M426.673,-43.06C430.954,-51.3376 435.307,-60.6272 439.5,-69 440.91,-71.8148 442.419,-74.7356 443.897,-77.6355"/>
<ellipse fill="none" stroke="#59614f" cx="424.662" cy="-39.3211" rx="4.00002" ry="4.00002"/>
<polygon fill="#59614f" stroke="#59614f" points="443.931,-77.7043 444.318,-88.6633 446.142,-82.1885 448.354,-86.6728 448.354,-86.6728 448.354,-86.6728 446.142,-82.1885 452.39,-84.6822 443.931,-77.7043 443.931,-77.7043"/>
</g>
<!-- Presentation&#45;&gt;Person -->
<g id="edge11" class="edge"><title>Presentation&#45;&gt;Person</title>
<path fill="none" stroke="#e5df45" d="M613.846,-45.904C610.521,-54.3837 605.629,-63.0741 598.5,-69 571.696,-91.2806 533.241,-99.9176 502.112,-103.043"/>
<polygon fill="#e5df45" stroke="#e5df45" points="613.909,-45.7126 621.338,-37.646 615.489,-40.9686 617.068,-36.2245 617.068,-36.2245 617.068,-36.2245 615.489,-40.9686 612.798,-34.8031 613.909,-45.7126 613.909,-45.7126"/>
<polygon fill="#e5df45" stroke="#e5df45" points="501.829,-103.067 491.487,-99.419 496.846,-103.485 491.864,-103.903 491.864,-103.903 491.864,-103.903 496.846,-103.485 492.24,-108.388 501.829,-103.067 501.829,-103.067"/>
<text text-anchor="middle" x="629" y="-57.8" font-family="Times,serif" font-size="14.00">juries</text>
</g>
<!-- Project&#45;&gt;Document -->
<g id="edge12" class="edge"><title>Project&#45;&gt;Document</title>
<path fill="none" stroke="#02f34b" d="M567.723,-186.257C603.276,-181.646 651.134,-172.771 690.5,-156 706.694,-149.101 722.952,-138.229 735.911,-128.383"/>
<ellipse fill="none" stroke="#02f34b" cx="563.39" cy="-186.793" rx="4.00001" ry="4.00001"/>
<polygon fill="#02f34b" stroke="#02f34b" points="736.044,-128.279 746.691,-125.656 739.98,-125.196 743.917,-122.113 743.917,-122.113 743.917,-122.113 739.98,-125.196 741.142,-118.57 736.044,-128.279 736.044,-128.279"/>
</g>
<!-- Project&#45;&gt;Person -->
<g id="edge14" class="edge"><title>Project&#45;&gt;Person</title>
<path fill="none" stroke="#c0be60" d="M465.329,-183.197C434.646,-177.356 399.819,-168.26 390.5,-156 380.628,-143.013 393.417,-131.09 409.58,-122.148"/>
<polygon fill="#c0be60" stroke="#c0be60" points="465.694,-183.263 474.727,-189.481 470.613,-184.158 475.533,-185.053 475.533,-185.053 475.533,-185.053 470.613,-184.158 476.338,-180.626 465.694,-183.263 465.694,-183.263"/>
<polygon fill="#c0be60" stroke="#c0be60" points="409.858,-122.007 420.813,-121.515 414.321,-119.753 418.784,-117.498 418.784,-117.498 418.784,-117.498 414.321,-119.753 416.755,-113.482 409.858,-122.007 409.858,-122.007"/>
<text text-anchor="middle" x="432.5" y="-144.8" font-family="Times,serif" font-size="14.00">supervisors</text>
</g>
<!-- Project&#45;&gt;Presentation -->
<g id="edge13" class="edge"><title>Project&#45;&gt;Presentation</title>
<path fill="none" stroke="#46b37b" d="M566.211,-184.443C600.13,-178.844 640.781,-169.528 651.5,-156 679.659,-120.461 670.234,-96.1412 653.5,-54 651.723,-49.5248 649.072,-45.2901 646.032,-41.4145"/>
<ellipse fill="none" stroke="#46b37b" cx="562.153" cy="-185.089" rx="4.00001" ry="4.00001"/>
<ellipse fill="#46b37b" stroke="#46b37b" cx="643.269" cy="-38.2608" rx="4.00002" ry="4.00002"/>
</g>
<!-- School&#45;&gt;Course -->
<g id="edge15" class="edge"><title>School&#45;&gt;Course</title>
<path fill="none" stroke="#eedda9" d="M517.53,-391.13C502.431,-381.294 483.953,-369.258 468.558,-359.231"/>
<ellipse fill="none" stroke="#eedda9" cx="521.091" cy="-393.449" rx="4.00002" ry="4.00002"/>
<polygon fill="#eedda9" stroke="#eedda9" points="468.278,-359.048 462.355,-349.82 464.089,-356.319 459.899,-353.59 459.899,-353.59 459.899,-353.59 464.089,-356.319 457.443,-357.361 468.278,-359.048 468.278,-359.048"/>
</g>
<!-- School&#45;&gt;Project -->
<g id="edge16" class="edge"><title>School&#45;&gt;Project</title>
<path fill="none" stroke="#9a27ab" d="M544.036,-382.738C540.939,-350.29 535.095,-294.519 527.5,-247 526.083,-238.134 524.227,-228.512 522.443,-219.879"/>
<polygon fill="#9a27ab" stroke="#9a27ab" points="544.046,-382.847 540.5,-393.223 544.513,-387.825 544.98,-392.803 544.98,-392.803 544.98,-392.803 544.513,-387.825 549.46,-392.383 544.046,-382.847 544.046,-382.847"/>
<polygon fill="#9a27ab" stroke="#9a27ab" points="522.414,-219.74 524.741,-209.023 521.377,-214.848 520.339,-209.957 520.339,-209.957 520.339,-209.957 521.377,-214.848 515.937,-210.891 522.414,-219.74 522.414,-219.74"/>
</g>
<!-- User -->
<g id="node13" class="node"><title>User</title>
<ellipse fill="none" stroke="black" cx="606.5" cy="-265" rx="32.4942" ry="18"/>
<text text-anchor="middle" x="606.5" y="-261.3" font-family="Times,serif" font-size="14.00">User</text>
</g>
<!-- User&#45;&gt;Project -->
<g id="edge17" class="edge"><title>User&#45;&gt;Project</title>
<path fill="none" stroke="#ed3216" d="M581.919,-244.609C570.162,-235.333 556.044,-224.196 543.938,-214.645"/>
<ellipse fill="none" stroke="#ed3216" cx="585.147" cy="-247.155" rx="4.00002" ry="4.00002"/>
<polygon fill="#ed3216" stroke="#ed3216" points="543.783,-214.523 538.719,-204.796 539.857,-211.426 535.932,-208.329 535.932,-208.329 535.932,-208.329 539.857,-211.426 533.145,-211.862 543.783,-214.523 543.783,-214.523"/>
</g>
</g>
</svg>
