<?xml version="1.0" encoding="UTF-8" standalone="no"?>
<!DOCTYPE svg PUBLIC "-//W3C//DTD SVG 1.1//EN"
 "http://www.w3.org/Graphics/SVG/1.1/DTD/svg11.dtd">
<!-- Generated by graphviz version 2.38.0 (20140413.2041)
 -->
<!-- Title: models_diagram Pages: 1 -->
<svg width="903pt" height="1427pt"
 viewBox="0.00 0.00 902.50 1427.00" xmlns="http://www.w3.org/2000/svg" xmlns:xlink="http://www.w3.org/1999/xlink">
<g id="graph0" class="graph" transform="scale(1 1) rotate(0) translate(4 1423)">
<title>models_diagram</title>
<polygon fill="none" stroke="none" points="-4,4 -4,-1423 898.5,-1423 898.5,4 -4,4"/>
<!-- _diagram_info -->
<g id="node1" class="node"><title>_diagram_info</title>
<text text-anchor="start" x="8" y="-1382.6" font-family="Times,serif" font-size="13.00">Models diagram</text>
<text text-anchor="start" x="8" y="-1368.6" font-family="Times,serif" font-size="13.00">Date: Dec 22 2016 &#45; 03:25</text>
<text text-anchor="start" x="8" y="-1354.6" font-family="Times,serif" font-size="13.00">Migration version: 20161222022551</text>
<text text-anchor="start" x="8" y="-1340.6" font-family="Times,serif" font-size="13.00">Generated by RailRoady 1.5.2</text>
<text text-anchor="start" x="8" y="-1326.6" font-family="Times,serif" font-size="13.00">http://railroady.prestonlee.com</text>
</g>
<!-- ApplicationRecord -->
<g id="node2" class="node"><title>ApplicationRecord</title>
<ellipse fill="none" stroke="black" cx="371.5" cy="-1358" rx="96.6831" ry="18"/>
<text text-anchor="middle" x="371.5" y="-1354.3" font-family="Times,serif" font-size="14.00">ApplicationRecord</text>
</g>
<!-- Course -->
<g id="node3" class="node"><title>Course</title>
<path fill="none" stroke="black" d="M336,-904.5C336,-904.5 497,-904.5 497,-904.5 503,-904.5 509,-910.5 509,-916.5 509,-916.5 509,-1058.5 509,-1058.5 509,-1064.5 503,-1070.5 497,-1070.5 497,-1070.5 336,-1070.5 336,-1070.5 330,-1070.5 324,-1064.5 324,-1058.5 324,-1058.5 324,-916.5 324,-916.5 324,-910.5 330,-904.5 336,-904.5"/>
<text text-anchor="middle" x="416.5" y="-1055.3" font-family="Times,serif" font-size="14.00">Course</text>
<polyline fill="none" stroke="black" points="324,-1047.5 509,-1047.5 "/>
<text text-anchor="start" x="332" y="-1032.3" font-family="Times,serif" font-size="14.00">id :INTEGER</text>
<text text-anchor="start" x="332" y="-1017.3" font-family="Times,serif" font-size="14.00">description :text</text>
<text text-anchor="start" x="332" y="-1002.3" font-family="Times,serif" font-size="14.00">created_at :datetime</text>
<text text-anchor="start" x="332" y="-987.3" font-family="Times,serif" font-size="14.00">updated_at :datetime</text>
<text text-anchor="start" x="332" y="-972.3" font-family="Times,serif" font-size="14.00">name :text</text>
<text text-anchor="start" x="332" y="-957.3" font-family="Times,serif" font-size="14.00">code :integer</text>
<text text-anchor="start" x="332" y="-942.3" font-family="Times,serif" font-size="14.00">initials :text</text>
<text text-anchor="start" x="332" y="-927.3" font-family="Times,serif" font-size="14.00">school_id :integer</text>
<text text-anchor="start" x="332" y="-912.3" font-family="Times,serif" font-size="14.00">course_type_id :integer</text>
</g>
<!-- CourseUnit -->
<g id="node5" class="node"><title>CourseUnit</title>
<path fill="none" stroke="black" d="M385.5,-678C385.5,-678 531.5,-678 531.5,-678 537.5,-678 543.5,-684 543.5,-690 543.5,-690 543.5,-817 543.5,-817 543.5,-823 537.5,-829 531.5,-829 531.5,-829 385.5,-829 385.5,-829 379.5,-829 373.5,-823 373.5,-817 373.5,-817 373.5,-690 373.5,-690 373.5,-684 379.5,-678 385.5,-678"/>
<text text-anchor="middle" x="458.5" y="-813.8" font-family="Times,serif" font-size="14.00">CourseUnit</text>
<polyline fill="none" stroke="black" points="373.5,-806 543.5,-806 "/>
<text text-anchor="start" x="381.5" y="-790.8" font-family="Times,serif" font-size="14.00">id :INTEGER</text>
<text text-anchor="start" x="381.5" y="-775.8" font-family="Times,serif" font-size="14.00">name :text</text>
<text text-anchor="start" x="381.5" y="-760.8" font-family="Times,serif" font-size="14.00">description :text</text>
<text text-anchor="start" x="381.5" y="-745.8" font-family="Times,serif" font-size="14.00">code :integer</text>
<text text-anchor="start" x="381.5" y="-730.8" font-family="Times,serif" font-size="14.00">initials :text</text>
<text text-anchor="start" x="381.5" y="-715.8" font-family="Times,serif" font-size="14.00">created_at :datetime</text>
<text text-anchor="start" x="381.5" y="-700.8" font-family="Times,serif" font-size="14.00">updated_at :datetime</text>
<text text-anchor="start" x="381.5" y="-685.8" font-family="Times,serif" font-size="14.00">course_id :integer</text>
</g>
<!-- Course&#45;&gt;CourseUnit -->
<g id="edge1" class="edge"><title>Course&#45;&gt;CourseUnit</title>
<path fill="none" stroke="#41f42c" d="M432.836,-896.265C436.243,-877.444 439.823,-857.67 443.191,-839.063"/>
<ellipse fill="none" stroke="#41f42c" cx="432.079" cy="-900.443" rx="4.00001" ry="4.00001"/>
<polygon fill="#41f42c" stroke="#41f42c" points="443.203,-838.996 449.413,-829.957 444.094,-834.076 444.985,-829.156 444.985,-829.156 444.985,-829.156 444.094,-834.076 440.557,-828.354 443.203,-838.996 443.203,-838.996"/>
</g>
<!-- Project -->
<g id="node11" class="node"><title>Project</title>
<path fill="none" stroke="black" d="M457.5,-376.5C457.5,-376.5 615.5,-376.5 615.5,-376.5 621.5,-376.5 627.5,-382.5 627.5,-388.5 627.5,-388.5 627.5,-590.5 627.5,-590.5 627.5,-596.5 621.5,-602.5 615.5,-602.5 615.5,-602.5 457.5,-602.5 457.5,-602.5 451.5,-602.5 445.5,-596.5 445.5,-590.5 445.5,-590.5 445.5,-388.5 445.5,-388.5 445.5,-382.5 451.5,-376.5 457.5,-376.5"/>
<text text-anchor="middle" x="536.5" y="-587.3" font-family="Times,serif" font-size="14.00">Project</text>
<polyline fill="none" stroke="black" points="445.5,-579.5 627.5,-579.5 "/>
<text text-anchor="start" x="453.5" y="-564.3" font-family="Times,serif" font-size="14.00">id :INTEGER</text>
<text text-anchor="start" x="453.5" y="-549.3" font-family="Times,serif" font-size="14.00">title :varchar</text>
<text text-anchor="start" x="453.5" y="-534.3" font-family="Times,serif" font-size="14.00">created_at :datetime</text>
<text text-anchor="start" x="453.5" y="-519.3" font-family="Times,serif" font-size="14.00">updated_at :datetime</text>
<text text-anchor="start" x="453.5" y="-504.3" font-family="Times,serif" font-size="14.00">resume :text</text>
<text text-anchor="start" x="453.5" y="-489.3" font-family="Times,serif" font-size="14.00">github :text</text>
<text text-anchor="start" x="453.5" y="-474.3" font-family="Times,serif" font-size="14.00">grade :text</text>
<text text-anchor="start" x="453.5" y="-459.3" font-family="Times,serif" font-size="14.00">project_url :text</text>
<text text-anchor="start" x="453.5" y="-444.3" font-family="Times,serif" font-size="14.00">date :date</text>
<text text-anchor="start" x="453.5" y="-429.3" font-family="Times,serif" font-size="14.00">finished :boolean</text>
<text text-anchor="start" x="453.5" y="-414.3" font-family="Times,serif" font-size="14.00">featured :boolean</text>
<text text-anchor="start" x="453.5" y="-399.3" font-family="Times,serif" font-size="14.00">user_id :integer</text>
<text text-anchor="start" x="453.5" y="-384.3" font-family="Times,serif" font-size="14.00">course_unit_id :integer</text>
</g>
<!-- Course&#45;&gt;Project -->
<g id="edge2" class="edge"><title>Course&#45;&gt;Project</title>
<path fill="none" stroke="#9c12a3" d="M372.201,-894.806C369.081,-885.573 366.416,-876.206 364.5,-867 343.941,-768.228 322.659,-731.804 364.5,-640 380.173,-605.611 408.096,-576.072 436.946,-552.55"/>
<polygon fill="#9c12a3" stroke="#9c12a3" points="372.25,-894.945 371.365,-905.876 373.927,-899.656 375.604,-904.366 375.604,-904.366 375.604,-904.366 373.927,-899.656 379.843,-902.857 372.25,-894.945 372.25,-894.945"/>
<polygon fill="#9c12a3" stroke="#9c12a3" points="437.267,-552.295 447.896,-549.6 441.182,-549.186 445.098,-546.076 445.098,-546.076 445.098,-546.076 441.182,-549.186 442.299,-542.552 437.267,-552.295 437.267,-552.295"/>
</g>
<!-- CourseType -->
<g id="node4" class="node"><title>CourseType</title>
<path fill="none" stroke="black" d="M308.5,-1131C308.5,-1131 454.5,-1131 454.5,-1131 460.5,-1131 466.5,-1137 466.5,-1143 466.5,-1143 466.5,-1225 466.5,-1225 466.5,-1231 460.5,-1237 454.5,-1237 454.5,-1237 308.5,-1237 308.5,-1237 302.5,-1237 296.5,-1231 296.5,-1225 296.5,-1225 296.5,-1143 296.5,-1143 296.5,-1137 302.5,-1131 308.5,-1131"/>
<text text-anchor="middle" x="381.5" y="-1221.8" font-family="Times,serif" font-size="14.00">CourseType</text>
<polyline fill="none" stroke="black" points="296.5,-1214 466.5,-1214 "/>
<text text-anchor="start" x="304.5" y="-1198.8" font-family="Times,serif" font-size="14.00">id :INTEGER</text>
<text text-anchor="start" x="304.5" y="-1183.8" font-family="Times,serif" font-size="14.00">name :text</text>
<text text-anchor="start" x="304.5" y="-1168.8" font-family="Times,serif" font-size="14.00">cycle :integer</text>
<text text-anchor="start" x="304.5" y="-1153.8" font-family="Times,serif" font-size="14.00">created_at :datetime</text>
<text text-anchor="start" x="304.5" y="-1138.8" font-family="Times,serif" font-size="14.00">updated_at :datetime</text>
</g>
<!-- CourseType&#45;&gt;Course -->
<g id="edge3" class="edge"><title>CourseType&#45;&gt;Course</title>
<path fill="none" stroke="#c215ef" d="M392.308,-1122.94C394.716,-1109.56 397.323,-1095.07 399.904,-1080.73"/>
<ellipse fill="none" stroke="#c215ef" cx="391.588" cy="-1126.94" rx="4.00001" ry="4.00001"/>
<polygon fill="#c215ef" stroke="#c215ef" points="399.913,-1080.68 406.113,-1071.63 400.798,-1075.76 401.684,-1070.84 401.684,-1070.84 401.684,-1070.84 400.798,-1075.76 397.255,-1070.04 399.913,-1080.68 399.913,-1080.68"/>
</g>
<!-- CourseUnit&#45;&gt;Project -->
<g id="edge4" class="edge"><title>CourseUnit&#45;&gt;Project</title>
<path fill="none" stroke="#65b4b1" d="M483.052,-670.029C488.471,-651.829 494.322,-632.174 500.097,-612.775"/>
<ellipse fill="none" stroke="#65b4b1" cx="481.889" cy="-673.938" rx="4.00001" ry="4.00001"/>
<polygon fill="#65b4b1" stroke="#65b4b1" points="500.162,-612.557 507.329,-604.257 501.589,-607.765 503.016,-602.973 503.016,-602.973 503.016,-602.973 501.589,-607.765 498.703,-601.689 500.162,-612.557 500.162,-612.557"/>
</g>
<!-- Document -->
<g id="node6" class="node"><title>Document</title>
<path fill="none" stroke="black" d="M736.5,-173.5C736.5,-173.5 882.5,-173.5 882.5,-173.5 888.5,-173.5 894.5,-179.5 894.5,-185.5 894.5,-185.5 894.5,-312.5 894.5,-312.5 894.5,-318.5 888.5,-324.5 882.5,-324.5 882.5,-324.5 736.5,-324.5 736.5,-324.5 730.5,-324.5 724.5,-318.5 724.5,-312.5 724.5,-312.5 724.5,-185.5 724.5,-185.5 724.5,-179.5 730.5,-173.5 736.5,-173.5"/>
<text text-anchor="middle" x="809.5" y="-309.3" font-family="Times,serif" font-size="14.00">Document</text>
<polyline fill="none" stroke="black" points="724.5,-301.5 894.5,-301.5 "/>
<text text-anchor="start" x="732.5" y="-286.3" font-family="Times,serif" font-size="14.00">id :INTEGER</text>
<text text-anchor="start" x="732.5" y="-271.3" font-family="Times,serif" font-size="14.00">description :text</text>
<text text-anchor="start" x="732.5" y="-256.3" font-family="Times,serif" font-size="14.00">date :date</text>
<text text-anchor="start" x="732.5" y="-241.3" font-family="Times,serif" font-size="14.00">local :text</text>
<text text-anchor="start" x="732.5" y="-226.3" font-family="Times,serif" font-size="14.00">created_at :datetime</text>
<text text-anchor="start" x="732.5" y="-211.3" font-family="Times,serif" font-size="14.00">updated_at :datetime</text>
<text text-anchor="start" x="732.5" y="-196.3" font-family="Times,serif" font-size="14.00">name :text</text>
<text text-anchor="start" x="732.5" y="-181.3" font-family="Times,serif" font-size="14.00">project_id :integer</text>
</g>
<!-- Institution -->
<g id="node7" class="node"><title>Institution</title>
<path fill="none" stroke="black" d="M498.5,-1297.5C498.5,-1297.5 644.5,-1297.5 644.5,-1297.5 650.5,-1297.5 656.5,-1303.5 656.5,-1309.5 656.5,-1309.5 656.5,-1406.5 656.5,-1406.5 656.5,-1412.5 650.5,-1418.5 644.5,-1418.5 644.5,-1418.5 498.5,-1418.5 498.5,-1418.5 492.5,-1418.5 486.5,-1412.5 486.5,-1406.5 486.5,-1406.5 486.5,-1309.5 486.5,-1309.5 486.5,-1303.5 492.5,-1297.5 498.5,-1297.5"/>
<text text-anchor="middle" x="571.5" y="-1403.3" font-family="Times,serif" font-size="14.00">Institution</text>
<polyline fill="none" stroke="black" points="486.5,-1395.5 656.5,-1395.5 "/>
<text text-anchor="start" x="494.5" y="-1380.3" font-family="Times,serif" font-size="14.00">id :INTEGER</text>
<text text-anchor="start" x="494.5" y="-1365.3" font-family="Times,serif" font-size="14.00">name :text</text>
<text text-anchor="start" x="494.5" y="-1350.3" font-family="Times,serif" font-size="14.00">initials :text</text>
<text text-anchor="start" x="494.5" y="-1335.3" font-family="Times,serif" font-size="14.00">code :integer</text>
<text text-anchor="start" x="494.5" y="-1320.3" font-family="Times,serif" font-size="14.00">created_at :datetime</text>
<text text-anchor="start" x="494.5" y="-1305.3" font-family="Times,serif" font-size="14.00">updated_at :datetime</text>
</g>
<!-- School -->
<g id="node12" class="node"><title>School</title>
<path fill="none" stroke="black" d="M497,-1108.5C497,-1108.5 646,-1108.5 646,-1108.5 652,-1108.5 658,-1114.5 658,-1120.5 658,-1120.5 658,-1247.5 658,-1247.5 658,-1253.5 652,-1259.5 646,-1259.5 646,-1259.5 497,-1259.5 497,-1259.5 491,-1259.5 485,-1253.5 485,-1247.5 485,-1247.5 485,-1120.5 485,-1120.5 485,-1114.5 491,-1108.5 497,-1108.5"/>
<text text-anchor="middle" x="571.5" y="-1244.3" font-family="Times,serif" font-size="14.00">School</text>
<polyline fill="none" stroke="black" points="485,-1236.5 658,-1236.5 "/>
<text text-anchor="start" x="493" y="-1221.3" font-family="Times,serif" font-size="14.00">id :INTEGER</text>
<text text-anchor="start" x="493" y="-1206.3" font-family="Times,serif" font-size="14.00">description :text</text>
<text text-anchor="start" x="493" y="-1191.3" font-family="Times,serif" font-size="14.00">created_at :datetime</text>
<text text-anchor="start" x="493" y="-1176.3" font-family="Times,serif" font-size="14.00">updated_at :datetime</text>
<text text-anchor="start" x="493" y="-1161.3" font-family="Times,serif" font-size="14.00">name :text</text>
<text text-anchor="start" x="493" y="-1146.3" font-family="Times,serif" font-size="14.00">code :integer</text>
<text text-anchor="start" x="493" y="-1131.3" font-family="Times,serif" font-size="14.00">initials :text</text>
<text text-anchor="start" x="493" y="-1116.3" font-family="Times,serif" font-size="14.00">institution_id :integer</text>
</g>
<!-- Institution&#45;&gt;School -->
<g id="edge5" class="edge"><title>Institution&#45;&gt;School</title>
<path fill="none" stroke="#15670d" d="M571.5,-1289.27C571.5,-1282.9 571.5,-1276.4 571.5,-1269.9"/>
<ellipse fill="none" stroke="#15670d" cx="571.5" cy="-1293.33" rx="4" ry="4"/>
<polygon fill="#15670d" stroke="#15670d" points="571.5,-1269.72 576,-1259.72 571.5,-1264.72 571.5,-1259.72 571.5,-1259.72 571.5,-1259.72 571.5,-1264.72 567,-1259.72 571.5,-1269.72 571.5,-1269.72"/>
</g>
<!-- Person -->
<g id="node8" class="node"><title>Person</title>
<path fill="none" stroke="black" d="M396.5,-188.5C396.5,-188.5 542.5,-188.5 542.5,-188.5 548.5,-188.5 554.5,-194.5 554.5,-200.5 554.5,-200.5 554.5,-297.5 554.5,-297.5 554.5,-303.5 548.5,-309.5 542.5,-309.5 542.5,-309.5 396.5,-309.5 396.5,-309.5 390.5,-309.5 384.5,-303.5 384.5,-297.5 384.5,-297.5 384.5,-200.5 384.5,-200.5 384.5,-194.5 390.5,-188.5 396.5,-188.5"/>
<text text-anchor="middle" x="469.5" y="-294.3" font-family="Times,serif" font-size="14.00">Person</text>
<polyline fill="none" stroke="black" points="384.5,-286.5 554.5,-286.5 "/>
<text text-anchor="start" x="392.5" y="-271.3" font-family="Times,serif" font-size="14.00">id :INTEGER</text>
<text text-anchor="start" x="392.5" y="-256.3" font-family="Times,serif" font-size="14.00">name :text</text>
<text text-anchor="start" x="392.5" y="-241.3" font-family="Times,serif" font-size="14.00">email :text</text>
<text text-anchor="start" x="392.5" y="-226.3" font-family="Times,serif" font-size="14.00">photo :text</text>
<text text-anchor="start" x="392.5" y="-211.3" font-family="Times,serif" font-size="14.00">created_at :datetime</text>
<text text-anchor="start" x="392.5" y="-196.3" font-family="Times,serif" font-size="14.00">updated_at :datetime</text>
</g>
<!-- PersonType -->
<g id="node9" class="node"><title>PersonType</title>
<path fill="none" stroke="black" d="M354.5,-15.5C354.5,-15.5 500.5,-15.5 500.5,-15.5 506.5,-15.5 512.5,-21.5 512.5,-27.5 512.5,-27.5 512.5,-94.5 512.5,-94.5 512.5,-100.5 506.5,-106.5 500.5,-106.5 500.5,-106.5 354.5,-106.5 354.5,-106.5 348.5,-106.5 342.5,-100.5 342.5,-94.5 342.5,-94.5 342.5,-27.5 342.5,-27.5 342.5,-21.5 348.5,-15.5 354.5,-15.5"/>
<text text-anchor="middle" x="427.5" y="-91.3" font-family="Times,serif" font-size="14.00">PersonType</text>
<polyline fill="none" stroke="black" points="342.5,-83.5 512.5,-83.5 "/>
<text text-anchor="start" x="350.5" y="-68.3" font-family="Times,serif" font-size="14.00">id :INTEGER</text>
<text text-anchor="start" x="350.5" y="-53.3" font-family="Times,serif" font-size="14.00">designation :text</text>
<text text-anchor="start" x="350.5" y="-38.3" font-family="Times,serif" font-size="14.00">created_at :datetime</text>
<text text-anchor="start" x="350.5" y="-23.3" font-family="Times,serif" font-size="14.00">updated_at :datetime</text>
</g>
<!-- Person&#45;&gt;PersonType -->
<g id="edge7" class="edge"><title>Person&#45;&gt;PersonType</title>
<path fill="none" stroke="#7fc51e" d="M447.736,-180.488C442.426,-158.754 437.188,-135.008 433.213,-114.518"/>
<ellipse fill="none" stroke="#7fc51e" cx="448.729" cy="-184.498" rx="4.00001" ry="4.00001"/>
<ellipse fill="#7fc51e" stroke="#7fc51e" cx="432.445" cy="-110.473" rx="4.00001" ry="4.00001"/>
</g>
<!-- Presentation -->
<g id="node10" class="node"><title>Presentation</title>
<path fill="none" stroke="black" d="M567.5,-0.5C567.5,-0.5 713.5,-0.5 713.5,-0.5 719.5,-0.5 725.5,-6.5 725.5,-12.5 725.5,-12.5 725.5,-109.5 725.5,-109.5 725.5,-115.5 719.5,-121.5 713.5,-121.5 713.5,-121.5 567.5,-121.5 567.5,-121.5 561.5,-121.5 555.5,-115.5 555.5,-109.5 555.5,-109.5 555.5,-12.5 555.5,-12.5 555.5,-6.5 561.5,-0.5 567.5,-0.5"/>
<text text-anchor="middle" x="640.5" y="-106.3" font-family="Times,serif" font-size="14.00">Presentation</text>
<polyline fill="none" stroke="black" points="555.5,-98.5 725.5,-98.5 "/>
<text text-anchor="start" x="563.5" y="-83.3" font-family="Times,serif" font-size="14.00">id :INTEGER</text>
<text text-anchor="start" x="563.5" y="-68.3" font-family="Times,serif" font-size="14.00">date :datetime</text>
<text text-anchor="start" x="563.5" y="-53.3" font-family="Times,serif" font-size="14.00">created_at :datetime</text>
<text text-anchor="start" x="563.5" y="-38.3" font-family="Times,serif" font-size="14.00">updated_at :datetime</text>
<text text-anchor="start" x="563.5" y="-23.3" font-family="Times,serif" font-size="14.00">room :text</text>
<text text-anchor="start" x="563.5" y="-8.3" font-family="Times,serif" font-size="14.00">project_id :integer</text>
</g>
<!-- Person&#45;&gt;Presentation -->
<g id="edge9" class="edge"><title>Person&#45;&gt;Presentation</title>
<path fill="none" stroke="#e1974a" d="M458.139,-177.914C459.127,-164.377 462.639,-151.003 470.5,-140 484.474,-120.442 499.39,-131.43 521.5,-122 529.541,-118.571 537.8,-114.847 546.038,-110.99"/>
<polygon fill="#e1974a" stroke="#e1974a" points="458.129,-178.265 453.346,-188.132 457.987,-183.262 457.844,-188.26 457.844,-188.26 457.844,-188.26 457.987,-183.262 462.342,-188.389 458.129,-178.265 458.129,-178.265"/>
<polygon fill="#e1974a" stroke="#e1974a" points="546.283,-110.874 557.247,-110.653 550.8,-108.73 555.318,-106.587 555.318,-106.587 555.318,-106.587 550.8,-108.73 553.389,-102.521 546.283,-110.874 546.283,-110.874"/>
<text text-anchor="middle" x="544.5" y="-143.8" font-family="Times,serif" font-size="14.00">juried_presentations</text>
</g>
<!-- Person&#45;&gt;Project -->
<g id="edge6" class="edge"><title>Person&#45;&gt;Project</title>
<path fill="none" stroke="#e55ae6" d="M489.094,-319.75C493.239,-334.505 497.73,-350.489 502.238,-366.538"/>
<polygon fill="#e55ae6" stroke="#e55ae6" points="488.989,-319.373 490.616,-308.529 487.636,-314.56 486.284,-309.746 486.284,-309.746 486.284,-309.746 487.636,-314.56 481.952,-310.963 488.989,-319.373 488.989,-319.373"/>
<polygon fill="#e55ae6" stroke="#e55ae6" points="502.257,-366.606 500.63,-377.451 503.61,-371.42 504.962,-376.234 504.962,-376.234 504.962,-376.234 503.61,-371.42 509.294,-375.017 502.257,-366.606 502.257,-366.606"/>
</g>
<!-- Person&#45;&gt;Project -->
<g id="edge8" class="edge"><title>Person&#45;&gt;Project</title>
<path fill="none" stroke="#3abef6" d="M502.955,-318.972C506.139,-326.963 509.076,-335.086 511.5,-343 513.821,-350.579 515.946,-358.45 517.889,-366.432"/>
<polygon fill="#3abef6" stroke="#3abef6" points="502.932,-318.916 503.281,-307.956 501.026,-314.293 499.121,-309.671 499.121,-309.671 499.121,-309.671 501.026,-314.293 494.961,-311.386 502.932,-318.916 502.932,-318.916"/>
<polygon fill="#3abef6" stroke="#3abef6" points="517.898,-366.473 515.786,-377.234 519.033,-371.343 520.169,-376.212 520.169,-376.212 520.169,-376.212 519.033,-371.343 524.551,-375.19 517.898,-366.473 517.898,-366.473"/>
<text text-anchor="middle" x="587" y="-346.8" font-family="Times,serif" font-size="14.00">supervised_projects</text>
</g>
<!-- PersonType&#45;&gt;Person -->
<g id="edge10" class="edge"><title>PersonType&#45;&gt;Person</title>
<path fill="none" stroke="#1776f8" d="M445.45,-114.306C450.59,-134.242 455.931,-157.284 460.375,-178.565"/>
<ellipse fill="none" stroke="#1776f8" cx="444.431" cy="-110.413" rx="4.00001" ry="4.00001"/>
<polygon fill="#1776f8" stroke="#1776f8" points="460.379,-178.584 457.977,-189.284 461.382,-183.483 462.385,-188.381 462.385,-188.381 462.385,-188.381 461.382,-183.483 466.794,-187.478 460.379,-178.584 460.379,-178.584"/>
</g>
<!-- Presentation&#45;&gt;Person -->
<g id="edge11" class="edge"><title>Presentation&#45;&gt;Person</title>
<path fill="none" stroke="#08b968" d="M630.618,-131.197C627.581,-139.672 623.631,-147.851 618.5,-155 604.201,-174.922 584.181,-191.505 563.447,-204.881"/>
<polygon fill="#08b968" stroke="#08b968" points="630.656,-131.076 637.964,-122.9 632.165,-126.309 633.673,-121.542 633.673,-121.542 633.673,-121.542 632.165,-126.309 629.383,-120.184 630.656,-131.076 630.656,-131.076"/>
<polygon fill="#08b968" stroke="#08b968" points="563.341,-204.947 552.473,-206.406 559.095,-207.587 554.849,-210.228 554.849,-210.228 554.849,-210.228 559.095,-207.587 557.226,-214.049 563.341,-204.947 563.341,-204.947"/>
<text text-anchor="middle" x="646" y="-143.8" font-family="Times,serif" font-size="14.00">juries</text>
</g>
<!-- Project&#45;&gt;Document -->
<g id="edge12" class="edge"><title>Project&#45;&gt;Document</title>
<path fill="none" stroke="#283756" d="M634.024,-420.327C659.662,-401.083 686.768,-379.504 710.5,-358 719.498,-349.847 728.583,-340.979 737.409,-331.946"/>
<ellipse fill="none" stroke="#283756" cx="630.745" cy="-422.775" rx="4.00002" ry="4.00002"/>
<polygon fill="#283756" stroke="#283756" points="737.481,-331.872 747.664,-327.803 740.953,-328.275 744.426,-324.677 744.426,-324.677 744.426,-324.677 740.953,-328.275 741.188,-321.552 737.481,-331.872 737.481,-331.872"/>
</g>
<!-- Project&#45;&gt;Person -->
<g id="edge14" class="edge"><title>Project&#45;&gt;Person</title>
<path fill="none" stroke="#864868" d="M438.72,-406.85C426.417,-391.944 415.655,-375.512 408.5,-358 403.191,-345.007 404.54,-331.629 409.501,-318.904"/>
<polygon fill="#864868" stroke="#864868" points="438.773,-406.912 441.867,-417.433 442.028,-410.708 445.283,-414.503 445.283,-414.503 445.283,-414.503 442.028,-410.708 448.699,-411.574 438.773,-406.912 438.773,-406.912"/>
<polygon fill="#864868" stroke="#864868" points="409.525,-318.852 417.795,-311.651 411.616,-314.311 413.708,-309.769 413.708,-309.769 413.708,-309.769 411.616,-314.311 409.62,-307.887 409.525,-318.852 409.525,-318.852"/>
<text text-anchor="middle" x="450.5" y="-346.8" font-family="Times,serif" font-size="14.00">supervisors</text>
</g>
<!-- Project&#45;&gt;Presentation -->
<g id="edge13" class="edge"><title>Project&#45;&gt;Presentation</title>
<path fill="none" stroke="#e77e7f" d="M633.064,-406.454C645.311,-391.611 656.121,-375.302 663.5,-358 701.53,-268.832 688.197,-235.31 670.5,-140 669.874,-136.63 669.108,-133.218 668.234,-129.799"/>
<ellipse fill="none" stroke="#e77e7f" cx="630.324" cy="-409.677" rx="4.00002" ry="4.00002"/>
<ellipse fill="#e77e7f" stroke="#e77e7f" cx="667.085" cy="-125.683" rx="4.00001" ry="4.00001"/>
</g>
<!-- School&#45;&gt;Course -->
<g id="edge15" class="edge"><title>School&#45;&gt;Course</title>
<path fill="none" stroke="#024984" d="M506.921,-1101.96C500.877,-1094.38 494.725,-1086.66 488.618,-1079"/>
<ellipse fill="none" stroke="#024984" cx="509.523" cy="-1105.23" rx="4.00002" ry="4.00002"/>
<polygon fill="#024984" stroke="#024984" points="488.249,-1078.53 485.536,-1067.91 485.132,-1074.62 482.016,-1070.71 482.016,-1070.71 482.016,-1070.71 485.132,-1074.62 478.497,-1073.52 488.249,-1078.53 488.249,-1078.53"/>
</g>
<!-- School&#45;&gt;Project -->
<g id="edge16" class="edge"><title>School&#45;&gt;Project</title>
<path fill="none" stroke="#f966a7" d="M570.411,-1098.16C568.606,-991.222 563.974,-801.795 552.5,-640 551.869,-631.109 551.122,-621.929 550.301,-612.697"/>
<polygon fill="#f966a7" stroke="#f966a7" points="570.412,-1098.25 566.078,-1108.33 570.495,-1103.25 570.577,-1108.25 570.577,-1108.25 570.577,-1108.25 570.495,-1103.25 575.076,-1108.18 570.412,-1098.25 570.412,-1098.25"/>
<polygon fill="#f966a7" stroke="#f966a7" points="550.295,-612.627 553.864,-602.258 549.839,-607.648 549.383,-602.669 549.383,-602.669 549.383,-602.669 549.839,-607.648 544.902,-603.079 550.295,-612.627 550.295,-612.627"/>
</g>
<!-- User -->
<g id="node13" class="node"><title>User</title>
<path fill="none" stroke="black" d="M611.5,-640.5C611.5,-640.5 849.5,-640.5 849.5,-640.5 855.5,-640.5 861.5,-646.5 861.5,-652.5 861.5,-652.5 861.5,-854.5 861.5,-854.5 861.5,-860.5 855.5,-866.5 849.5,-866.5 849.5,-866.5 611.5,-866.5 611.5,-866.5 605.5,-866.5 599.5,-860.5 599.5,-854.5 599.5,-854.5 599.5,-652.5 599.5,-652.5 599.5,-646.5 605.5,-640.5 611.5,-640.5"/>
<text text-anchor="middle" x="730.5" y="-851.3" font-family="Times,serif" font-size="14.00">User</text>
<polyline fill="none" stroke="black" points="599.5,-843.5 861.5,-843.5 "/>
<text text-anchor="start" x="607.5" y="-828.3" font-family="Times,serif" font-size="14.00">id :INTEGER</text>
<text text-anchor="start" x="607.5" y="-813.3" font-family="Times,serif" font-size="14.00">email :varchar</text>
<text text-anchor="start" x="607.5" y="-798.3" font-family="Times,serif" font-size="14.00">encrypted_password :varchar</text>
<text text-anchor="start" x="607.5" y="-783.3" font-family="Times,serif" font-size="14.00">reset_password_token :varchar</text>
<text text-anchor="start" x="607.5" y="-768.3" font-family="Times,serif" font-size="14.00">reset_password_sent_at :datetime</text>
<text text-anchor="start" x="607.5" y="-753.3" font-family="Times,serif" font-size="14.00">remember_created_at :datetime</text>
<text text-anchor="start" x="607.5" y="-738.3" font-family="Times,serif" font-size="14.00">sign_in_count :integer</text>
<text text-anchor="start" x="607.5" y="-723.3" font-family="Times,serif" font-size="14.00">current_sign_in_at :datetime</text>
<text text-anchor="start" x="607.5" y="-708.3" font-family="Times,serif" font-size="14.00">last_sign_in_at :datetime</text>
<text text-anchor="start" x="607.5" y="-693.3" font-family="Times,serif" font-size="14.00">current_sign_in_ip :varchar</text>
<text text-anchor="start" x="607.5" y="-678.3" font-family="Times,serif" font-size="14.00">last_sign_in_ip :varchar</text>
<text text-anchor="start" x="607.5" y="-663.3" font-family="Times,serif" font-size="14.00">created_at :datetime</text>
<text text-anchor="start" x="607.5" y="-648.3" font-family="Times,serif" font-size="14.00">updated_at :datetime</text>
</g>
<!-- User&#45;&gt;Project -->
<g id="edge17" class="edge"><title>User&#45;&gt;Project</title>
<path fill="none" stroke="#0edfdf" d="M642.596,-633.785C636.938,-626.143 631.237,-618.444 625.573,-610.795"/>
<ellipse fill="none" stroke="#0edfdf" cx="645.002" cy="-637.034" rx="4.00002" ry="4.00002"/>
<polygon fill="#0edfdf" stroke="#0edfdf" points="625.396,-610.555 623.062,-599.841 622.42,-606.537 619.445,-602.519 619.445,-602.519 619.445,-602.519 622.42,-606.537 615.829,-605.196 625.396,-610.555 625.396,-610.555"/>
</g>
</g>
</svg>
