<?xml version="1.0" encoding="UTF-8" standalone="no"?>
<!DOCTYPE svg PUBLIC "-//W3C//DTD SVG 1.1//EN"
 "http://www.w3.org/Graphics/SVG/1.1/DTD/svg11.dtd">
<!-- Generated by graphviz version 2.38.0 (20140413.2041)
 -->
<!-- Title: models_diagram Pages: 1 -->
<svg width="1073pt" height="552pt"
 viewBox="0.00 0.00 1072.79 552.00" xmlns="http://www.w3.org/2000/svg" xmlns:xlink="http://www.w3.org/1999/xlink">
<g id="graph0" class="graph" transform="scale(1 1) rotate(0) translate(4 548)">
<title>models_diagram</title>
<polygon fill="none" stroke="none" points="-4,4 -4,-548 1068.79,-548 1068.79,4 -4,4"/>
<!-- _diagram_info -->
<g id="node1" class="node"><title>_diagram_info</title>
<text text-anchor="start" x="8" y="-529.6" font-family="Times,serif" font-size="13.00">Models diagram</text>
<text text-anchor="start" x="8" y="-515.6" font-family="Times,serif" font-size="13.00">Date: Jan 10 2017 &#45; 21:00</text>
<text text-anchor="start" x="8" y="-501.6" font-family="Times,serif" font-size="13.00">Migration version: 20170102161923</text>
<text text-anchor="start" x="8" y="-487.6" font-family="Times,serif" font-size="13.00">Generated by RailRoady 1.5.2</text>
<text text-anchor="start" x="8" y="-473.6" font-family="Times,serif" font-size="13.00">http://railroady.prestonlee.com</text>
</g>
<!-- ApplicationRecord -->
<g id="node2" class="node"><title>ApplicationRecord</title>
<ellipse fill="none" stroke="black" cx="309" cy="-505" rx="77.1866" ry="18"/>
<text text-anchor="middle" x="309" y="-501.3" font-family="Times,serif" font-size="14.00">ApplicationRecord</text>
</g>
<!-- Course -->
<g id="node3" class="node"><title>Course</title>
<ellipse fill="none" stroke="black" cx="537" cy="-338" rx="35.9954" ry="18"/>
<text text-anchor="middle" x="537" y="-334.3" font-family="Times,serif" font-size="14.00">Course</text>
</g>
<!-- CourseUnit -->
<g id="node5" class="node"><title>CourseUnit</title>
<ellipse fill="none" stroke="black" cx="568" cy="-265" rx="51.1914" ry="18"/>
<text text-anchor="middle" x="568" y="-261.3" font-family="Times,serif" font-size="14.00">CourseUnit</text>
</g>
<!-- Course&#45;&gt;CourseUnit -->
<g id="edge1" class="edge"><title>Course&#45;&gt;CourseUnit</title>
<path fill="none" stroke="#77e07c" d="M547.601,-312.721C550.448,-306.199 553.542,-299.114 556.439,-292.479"/>
<ellipse fill="none" stroke="#77e07c" cx="545.947" cy="-316.508" rx="4.00002" ry="4.00002"/>
<polygon fill="#77e07c" stroke="#77e07c" points="556.489,-292.363 564.615,-284.999 558.49,-287.781 560.491,-283.198 560.491,-283.198 560.491,-283.198 558.49,-287.781 556.367,-281.398 556.489,-292.363 556.489,-292.363"/>
</g>
<!-- Project -->
<g id="node11" class="node"><title>Project</title>
<ellipse fill="none" stroke="black" cx="515" cy="-192" rx="35.9954" ry="18"/>
<text text-anchor="middle" x="515" y="-188.3" font-family="Times,serif" font-size="14.00">Project</text>
</g>
<!-- Course&#45;&gt;Project -->
<g id="edge2" class="edge"><title>Course&#45;&gt;Project</title>
<path fill="none" stroke="#a02a42" d="M520.398,-312.231C515.387,-303.391 510.543,-293.11 508,-283 502.759,-262.163 505.139,-237.833 508.48,-219.727"/>
<polygon fill="#a02a42" stroke="#a02a42" points="520.432,-312.287 521.736,-323.175 523.012,-316.57 525.591,-320.853 525.591,-320.853 525.591,-320.853 523.012,-316.57 529.446,-318.532 520.432,-312.287 520.432,-312.287"/>
<polygon fill="#a02a42" stroke="#a02a42" points="508.495,-219.654 514.916,-210.765 509.502,-214.756 510.508,-209.859 510.508,-209.859 510.508,-209.859 509.502,-214.756 506.101,-208.953 508.495,-219.654 508.495,-219.654"/>
</g>
<!-- CourseType -->
<g id="node4" class="node"><title>CourseType</title>
<ellipse fill="none" stroke="black" cx="558" cy="-411" rx="53.8905" ry="18"/>
<text text-anchor="middle" x="558" y="-407.3" font-family="Times,serif" font-size="14.00">CourseType</text>
</g>
<!-- CourseType&#45;&gt;Course -->
<g id="edge3" class="edge"><title>CourseType&#45;&gt;Course</title>
<path fill="none" stroke="#36ed77" d="M550.629,-385.08C548.809,-378.924 546.85,-372.302 545.001,-366.051"/>
<ellipse fill="none" stroke="#36ed77" cx="551.782" cy="-388.977" rx="4.00001" ry="4.00001"/>
<polygon fill="#36ed77" stroke="#36ed77" points="544.873,-365.618 546.352,-354.752 543.455,-360.824 542.037,-356.029 542.037,-356.029 542.037,-356.029 543.455,-360.824 537.721,-357.305 544.873,-365.618 544.873,-365.618"/>
</g>
<!-- CourseUnit&#45;&gt;Project -->
<g id="edge4" class="edge"><title>CourseUnit&#45;&gt;Project</title>
<path fill="none" stroke="#475dc7" d="M550.588,-240.675C545.064,-233.274 538.94,-225.07 533.351,-217.584"/>
<ellipse fill="none" stroke="#475dc7" cx="553.047" cy="-243.969" rx="4.00002" ry="4.00002"/>
<polygon fill="#475dc7" stroke="#475dc7" points="533.087,-217.23 530.711,-206.525 530.096,-213.223 527.105,-209.217 527.105,-209.217 527.105,-209.217 530.096,-213.223 523.499,-211.908 533.087,-217.23 533.087,-217.23"/>
</g>
<!-- Document -->
<g id="node6" class="node"><title>Document</title>
<ellipse fill="none" stroke="black" cx="383" cy="-105" rx="48.1917" ry="18"/>
<text text-anchor="middle" x="383" y="-101.3" font-family="Times,serif" font-size="14.00">Document</text>
</g>
<!-- Institution -->
<g id="node7" class="node"><title>Institution</title>
<ellipse fill="none" stroke="black" cx="451" cy="-505" rx="46.5926" ry="18"/>
<text text-anchor="middle" x="451" y="-501.3" font-family="Times,serif" font-size="14.00">Institution</text>
</g>
<!-- School -->
<g id="node13" class="node"><title>School</title>
<ellipse fill="none" stroke="black" cx="451" cy="-411" rx="35.194" ry="18"/>
<text text-anchor="middle" x="451" y="-407.3" font-family="Times,serif" font-size="14.00">School</text>
</g>
<!-- Institution&#45;&gt;School -->
<g id="edge5" class="edge"><title>Institution&#45;&gt;School</title>
<path fill="none" stroke="#cc1fc3" d="M451,-478.451C451,-466.315 451,-451.795 451,-439.427"/>
<ellipse fill="none" stroke="#cc1fc3" cx="451" cy="-482.696" rx="4" ry="4"/>
<polygon fill="#cc1fc3" stroke="#cc1fc3" points="451,-439.227 455.5,-429.227 451,-434.227 451,-429.227 451,-429.227 451,-429.227 451,-434.227 446.5,-429.227 451,-439.227 451,-439.227"/>
</g>
<!-- Person -->
<g id="node8" class="node"><title>Person</title>
<ellipse fill="none" stroke="black" cx="253" cy="-105" rx="34.394" ry="18"/>
<text text-anchor="middle" x="253" y="-101.3" font-family="Times,serif" font-size="14.00">Person</text>
</g>
<!-- Presentation -->
<g id="node10" class="node"><title>Presentation</title>
<ellipse fill="none" stroke="black" cx="307" cy="-18" rx="53.8905" ry="18"/>
<text text-anchor="middle" x="307" y="-14.3" font-family="Times,serif" font-size="14.00">Presentation</text>
</g>
<!-- Person&#45;&gt;Presentation -->
<g id="edge8" class="edge"><title>Person&#45;&gt;Presentation</title>
<path fill="none" stroke="#2fba09" d="M275.714,-81.2538C279.052,-77.3372 282.278,-73.1774 285,-69 289.733,-61.7375 293.891,-53.2868 297.281,-45.4223"/>
<polygon fill="#2fba09" stroke="#2fba09" points="275.531,-81.4568 265.49,-85.864 272.181,-85.1681 268.83,-88.8795 268.83,-88.8795 268.83,-88.8795 272.181,-85.1681 272.17,-91.8949 275.531,-81.4568 275.531,-81.4568"/>
<polygon fill="#2fba09" stroke="#2fba09" points="297.383,-45.1711 305.318,-37.6027 299.266,-40.5394 301.15,-35.9076 301.15,-35.9076 301.15,-35.9076 299.266,-40.5394 296.981,-34.2126 297.383,-45.1711 297.383,-45.1711"/>
<text text-anchor="middle" x="348" y="-57.8" font-family="Times,serif" font-size="14.00">juried_presentations</text>
</g>
<!-- Person&#45;&gt;Project -->
<g id="edge6" class="edge"><title>Person&#45;&gt;Project</title>
<path fill="none" stroke="#512df5" d="M233.893,-130.697C229.487,-139.443 227.704,-148.871 234,-156 249.308,-173.333 393.902,-184.094 469.472,-188.58"/>
<polygon fill="#512df5" stroke="#512df5" points="234.012,-130.5 243.05,-124.29 236.608,-126.227 239.204,-121.954 239.204,-121.954 239.204,-121.954 236.608,-126.227 235.358,-119.618 234.012,-130.5 234.012,-130.5"/>
<polygon fill="#512df5" stroke="#512df5" points="469.674,-188.592 479.396,-193.664 474.665,-188.882 479.657,-189.172 479.657,-189.172 479.657,-189.172 474.665,-188.882 479.918,-184.679 469.674,-188.592 469.674,-188.592"/>
</g>
<!-- Person&#45;&gt;Project -->
<g id="edge7" class="edge"><title>Person&#45;&gt;Project</title>
<path fill="none" stroke="#e25646" d="M247.176,-132.99C246.933,-141.263 248.471,-149.806 254,-156 281.671,-186.998 401.638,-191.622 468.879,-191.697"/>
<polygon fill="#e25646" stroke="#e25646" points="247.197,-132.795 252.744,-123.335 247.733,-127.824 248.27,-122.853 248.27,-122.853 248.27,-122.853 247.733,-127.824 243.796,-122.37 247.197,-132.795 247.197,-132.795"/>
<polygon fill="#e25646" stroke="#e25646" points="469.195,-191.696 479.206,-196.173 474.195,-191.685 479.195,-191.673 479.195,-191.673 479.195,-191.673 474.195,-191.685 479.185,-187.173 469.195,-191.696 469.195,-191.696"/>
<text text-anchor="middle" x="308" y="-144.8" font-family="Times,serif" font-size="14.00">supervised_projects</text>
</g>
<!-- PersonType -->
<g id="node9" class="node"><title>PersonType</title>
<ellipse fill="none" stroke="black" cx="195" cy="-192" rx="52.7911" ry="18"/>
<text text-anchor="middle" x="195" y="-188.3" font-family="Times,serif" font-size="14.00">PersonType</text>
</g>
<!-- PersonType&#45;&gt;Person -->
<g id="edge9" class="edge"><title>PersonType&#45;&gt;Person</title>
<path fill="none" stroke="#338761" d="M198.866,-165.655C200.951,-157.321 204.14,-148.323 209,-141 212.844,-135.208 217.955,-129.93 223.329,-125.328"/>
<ellipse fill="none" stroke="#338761" cx="197.974" cy="-169.773" rx="4.00001" ry="4.00001"/>
<polygon fill="#338761" stroke="#338761" points="223.411,-125.264 234.056,-122.628 227.344,-122.176 231.277,-119.088 231.277,-119.088 231.277,-119.088 227.344,-122.176 228.498,-115.549 223.411,-125.264 223.411,-125.264"/>
</g>
<!-- Presentation&#45;&gt;Person -->
<g id="edge10" class="edge"><title>Presentation&#45;&gt;Person</title>
<path fill="none" stroke="#984547" d="M264.818,-37.7446C258.88,-42.2109 253.586,-47.59 250,-54 246.205,-60.7829 245.426,-68.924 246.019,-76.6482"/>
<polygon fill="#984547" stroke="#984547" points="264.866,-37.7127 275.692,-35.966 269.041,-34.9608 273.216,-32.2089 273.216,-32.2089 273.216,-32.2089 269.041,-34.9608 270.739,-28.4517 264.866,-37.7127 264.866,-37.7127"/>
<polygon fill="#984547" stroke="#984547" points="246.051,-76.865 243.073,-87.4187 246.788,-81.8105 247.524,-86.756 247.524,-86.756 247.524,-86.756 246.788,-81.8105 251.975,-86.0933 246.051,-76.865 246.051,-76.865"/>
<text text-anchor="middle" x="265.5" y="-57.8" font-family="Times,serif" font-size="14.00">juries</text>
</g>
<!-- Project&#45;&gt;Document -->
<g id="edge16" class="edge"><title>Project&#45;&gt;Document</title>
<path fill="none" stroke="#be9213" d="M490.046,-171.41C477.426,-161.826 461.703,-150.367 447,-141 438.188,-135.386 428.409,-129.756 419.202,-124.703"/>
<ellipse fill="none" stroke="#be9213" cx="493.536" cy="-174.084" rx="4.00002" ry="4.00002"/>
<polygon fill="#be9213" stroke="#be9213" points="419.04,-124.615 412.38,-115.904 414.641,-122.24 410.241,-119.864 410.241,-119.864 410.241,-119.864 414.641,-122.24 408.103,-123.823 419.04,-124.615 419.04,-124.615"/>
</g>
<!-- Project&#45;&gt;Person -->
<g id="edge18" class="edge"><title>Project&#45;&gt;Person</title>
<path fill="none" stroke="#d368b3" d="M471.212,-184.29C444.215,-179.024 409.439,-170.157 381,-156 371.369,-151.205 371.495,-146.059 362,-141 340.745,-129.677 315.191,-121.231 294.169,-115.476"/>
<polygon fill="#d368b3" stroke="#d368b3" points="471.317,-184.309 480.327,-190.56 476.233,-185.222 481.149,-186.135 481.149,-186.135 481.149,-186.135 476.233,-185.222 481.971,-181.711 471.317,-184.309 471.317,-184.309"/>
<polygon fill="#d368b3" stroke="#d368b3" points="293.923,-115.411 285.398,-108.514 289.088,-114.139 284.252,-112.866 284.252,-112.866 284.252,-112.866 289.088,-114.139 283.107,-117.218 293.923,-115.411 293.923,-115.411"/>
<text text-anchor="middle" x="412" y="-144.8" font-family="Times,serif" font-size="14.00">supervisors</text>
</g>
<!-- Project&#45;&gt;Presentation -->
<g id="edge15" class="edge"><title>Project&#45;&gt;Presentation</title>
<path fill="none" stroke="#20fb86" d="M502.659,-166.593C485.569,-135.396 451.68,-82.0768 407,-54 391.876,-44.4962 373.837,-37.1664 357.27,-31.7287"/>
<ellipse fill="none" stroke="#20fb86" cx="504.749" cy="-170.493" rx="4.00002" ry="4.00002"/>
<ellipse fill="#20fb86" stroke="#20fb86" cx="353.09" cy="-30.4119" rx="4.00001" ry="4.00001"/>
</g>
<!-- ProjectImage -->
<g id="node12" class="node"><title>ProjectImage</title>
<ellipse fill="none" stroke="black" cx="545" cy="-105" rx="57.6901" ry="18"/>
<text text-anchor="middle" x="545" y="-101.3" font-family="Times,serif" font-size="14.00">ProjectImage</text>
</g>
<!-- Project&#45;&gt;ProjectImage -->
<g id="edge17" class="edge"><title>Project&#45;&gt;ProjectImage</title>
<path fill="none" stroke="#735b3f" d="M523.668,-166.44C527.388,-155.902 531.743,-143.561 535.545,-132.788"/>
<ellipse fill="none" stroke="#735b3f" cx="522.258" cy="-170.435" rx="4.00001" ry="4.00001"/>
<polygon fill="#735b3f" stroke="#735b3f" points="535.654,-132.479 543.226,-124.547 537.318,-127.764 538.983,-123.049 538.983,-123.049 538.983,-123.049 537.318,-127.764 534.739,-121.552 535.654,-132.479 535.654,-132.479"/>
</g>
<!-- ActsAsTaggableOn::Tagging -->
<g id="node16" class="node"><title>ActsAsTaggableOn::Tagging</title>
<ellipse fill="none" stroke="black" cx="735" cy="-105" rx="114.28" ry="18"/>
<text text-anchor="middle" x="735" y="-101.3" font-family="Times,serif" font-size="14.00">ActsAsTaggableOn::Tagging</text>
</g>
<!-- Project&#45;&gt;ActsAsTaggableOn::Tagging -->
<g id="edge11" class="edge"><title>Project&#45;&gt;ActsAsTaggableOn::Tagging</title>
<path fill="none" stroke="#03ed54" d="M549.895,-177.518C586.06,-163.545 642.955,-141.563 684.126,-125.656"/>
<ellipse fill="none" stroke="#03ed54" cx="546.15" cy="-178.965" rx="4.00001" ry="4.00001"/>
<polygon fill="#03ed54" stroke="#03ed54" points="684.378,-125.558 695.328,-126.152 689.042,-123.756 693.706,-121.954 693.706,-121.954 693.706,-121.954 689.042,-123.756 692.085,-117.757 684.378,-125.558 684.378,-125.558"/>
<text text-anchor="middle" x="661" y="-144.8" font-family="Times,serif" font-size="14.00">taggings</text>
</g>
<!-- Project&#45;&gt;ActsAsTaggableOn::Tagging -->
<g id="edge13" class="edge"><title>Project&#45;&gt;ActsAsTaggableOn::Tagging</title>
<path fill="none" stroke="#df2e71" d="M558.657,-189.475C595.246,-186.547 647.8,-178.379 688,-156 699.11,-149.815 709.126,-140.096 717.029,-130.865"/>
<ellipse fill="none" stroke="#df2e71" cx="554.631" cy="-189.766" rx="4" ry="4"/>
<polygon fill="#df2e71" stroke="#df2e71" points="717.117,-130.756 726.904,-125.808 720.261,-126.867 723.404,-122.979 723.404,-122.979 723.404,-122.979 720.261,-126.867 719.905,-120.15 717.117,-130.756 717.117,-130.756"/>
<text text-anchor="middle" x="742" y="-144.8" font-family="Times,serif" font-size="14.00">tag_taggings</text>
</g>
<!-- ActsAsTaggableOn::Tag -->
<g id="node17" class="node"><title>ActsAsTaggableOn::Tag</title>
<ellipse fill="none" stroke="black" cx="966" cy="-105" rx="98.5829" ry="18"/>
<text text-anchor="middle" x="966" y="-101.3" font-family="Times,serif" font-size="14.00">ActsAsTaggableOn::Tag</text>
</g>
<!-- Project&#45;&gt;ActsAsTaggableOn::Tag -->
<g id="edge12" class="edge"><title>Project&#45;&gt;ActsAsTaggableOn::Tag</title>
<path fill="none" stroke="#9e730b" d="M560.218,-186.903C613.386,-181.658 704.139,-171.372 781,-156 824.091,-147.382 871.964,-134.347 908.213,-123.747"/>
<polygon fill="#9e730b" stroke="#9e730b" points="560.054,-186.918 549.666,-183.405 555.077,-187.401 550.1,-187.884 550.1,-187.884 550.1,-187.884 555.077,-187.401 550.535,-192.363 560.054,-186.918 560.054,-186.918"/>
<polygon fill="#9e730b" stroke="#9e730b" points="908.524,-123.655 919.388,-125.143 913.32,-122.241 918.115,-120.827 918.115,-120.827 918.115,-120.827 913.32,-122.241 916.843,-116.511 908.524,-123.655 908.524,-123.655"/>
<text text-anchor="middle" x="868.5" y="-144.8" font-family="Times,serif" font-size="14.00">base_tags</text>
</g>
<!-- Project&#45;&gt;ActsAsTaggableOn::Tag -->
<g id="edge14" class="edge"><title>Project&#45;&gt;ActsAsTaggableOn::Tag</title>
<path fill="none" stroke="#95d66c" d="M560.842,-189.929C648.894,-187.365 838.332,-179.252 899,-156 914.526,-150.049 929.574,-139.411 941.462,-129.473"/>
<polygon fill="#95d66c" stroke="#95d66c" points="560.618,-189.935 550.496,-185.717 555.62,-190.075 550.622,-190.215 550.622,-190.215 550.622,-190.215 555.62,-190.075 550.748,-194.713 560.618,-189.935 560.618,-189.935"/>
<polygon fill="#95d66c" stroke="#95d66c" points="941.615,-129.34 952.111,-126.163 945.385,-126.055 949.155,-122.771 949.155,-122.771 949.155,-122.771 945.385,-126.055 946.198,-119.378 941.615,-129.34 941.615,-129.34"/>
<text text-anchor="middle" x="936" y="-144.8" font-family="Times,serif" font-size="14.00">tags</text>
</g>
<!-- School&#45;&gt;Course -->
<g id="edge19" class="edge"><title>School&#45;&gt;Course</title>
<path fill="none" stroke="#f3afa9" d="M474.995,-390.19C486.277,-380.876 499.744,-369.758 511.24,-360.267"/>
<ellipse fill="none" stroke="#f3afa9" cx="471.904" cy="-392.742" rx="4.00002" ry="4.00002"/>
<polygon fill="#f3afa9" stroke="#f3afa9" points="511.492,-360.059 522.069,-357.163 515.348,-356.876 519.204,-353.692 519.204,-353.692 519.204,-353.692 515.348,-356.876 516.339,-350.222 511.492,-360.059 511.492,-360.059"/>
</g>
<!-- School&#45;&gt;Project -->
<g id="edge20" class="edge"><title>School&#45;&gt;Project</title>
<path fill="none" stroke="#4a9034" d="M458.19,-383.194C467.848,-347.583 485.794,-282.787 503,-228 503.866,-225.242 504.799,-222.372 505.747,-219.515"/>
<polygon fill="#4a9034" stroke="#4a9034" points="458.189,-383.195 451.236,-391.675 456.885,-388.022 455.58,-392.849 455.58,-392.849 455.58,-392.849 456.885,-388.022 459.925,-394.023 458.189,-383.195 458.189,-383.195"/>
<polygon fill="#4a9034" stroke="#4a9034" points="505.752,-219.502 513.224,-211.476 507.357,-214.767 508.962,-210.031 508.962,-210.031 508.962,-210.031 507.357,-214.767 504.7,-208.587 505.752,-219.502 505.752,-219.502"/>
</g>
<!-- Tag -->
<g id="node14" class="node"><title>Tag</title>
<ellipse fill="none" stroke="black" cx="543" cy="-505" rx="27" ry="18"/>
<text text-anchor="middle" x="543" y="-501.3" font-family="Times,serif" font-size="14.00">Tag</text>
</g>
<!-- User -->
<g id="node15" class="node"><title>User</title>
<ellipse fill="none" stroke="black" cx="665" cy="-265" rx="27.0966" ry="18"/>
<text text-anchor="middle" x="665" y="-261.3" font-family="Times,serif" font-size="14.00">User</text>
</g>
<!-- User&#45;&gt;Project -->
<g id="edge21" class="edge"><title>User&#45;&gt;Project</title>
<path fill="none" stroke="#5142a9" d="M636.057,-250.3C611.298,-238.581 575.613,-221.69 549.4,-209.282"/>
<ellipse fill="none" stroke="#5142a9" cx="639.893" cy="-252.116" rx="4.00002" ry="4.00002"/>
<polygon fill="#5142a9" stroke="#5142a9" points="549.247,-209.21 542.134,-200.865 544.728,-207.071 540.208,-204.932 540.208,-204.932 540.208,-204.932 544.728,-207.071 538.283,-208.999 549.247,-209.21 549.247,-209.21"/>
</g>
</g>
</svg>
