<?xml version="1.0" encoding="UTF-8" standalone="no"?>
<!DOCTYPE svg PUBLIC "-//W3C//DTD SVG 1.1//EN"
 "http://www.w3.org/Graphics/SVG/1.1/DTD/svg11.dtd">
<!-- Generated by graphviz version 2.38.0 (20140413.2041)
 -->
<!-- Title: models_diagram Pages: 1 -->
<svg width="1154pt" height="1562pt"
 viewBox="0.00 0.00 1153.79 1562.00" xmlns="http://www.w3.org/2000/svg" xmlns:xlink="http://www.w3.org/1999/xlink">
<g id="graph0" class="graph" transform="scale(1 1) rotate(0) translate(4 1558)">
<title>models_diagram</title>
<polygon fill="none" stroke="none" points="-4,4 -4,-1558 1149.79,-1558 1149.79,4 -4,4"/>
<!-- _diagram_info -->
<g id="node1" class="node"><title>_diagram_info</title>
<text text-anchor="start" x="8" y="-1517.6" font-family="Times,serif" font-size="13.00">Models diagram</text>
<text text-anchor="start" x="8" y="-1503.6" font-family="Times,serif" font-size="13.00">Date: Jan 10 2017 &#45; 21:00</text>
<text text-anchor="start" x="8" y="-1489.6" font-family="Times,serif" font-size="13.00">Migration version: 20170102161923</text>
<text text-anchor="start" x="8" y="-1475.6" font-family="Times,serif" font-size="13.00">Generated by RailRoady 1.5.2</text>
<text text-anchor="start" x="8" y="-1461.6" font-family="Times,serif" font-size="13.00">http://railroady.prestonlee.com</text>
</g>
<!-- ApplicationRecord -->
<g id="node2" class="node"><title>ApplicationRecord</title>
<ellipse fill="none" stroke="black" cx="309" cy="-1493" rx="77.1866" ry="18"/>
<text text-anchor="middle" x="309" y="-1489.3" font-family="Times,serif" font-size="14.00">ApplicationRecord</text>
</g>
<!-- Course -->
<g id="node3" class="node"><title>Course</title>
<path fill="none" stroke="black" d="M518,-1039.5C518,-1039.5 638,-1039.5 638,-1039.5 644,-1039.5 650,-1045.5 650,-1051.5 650,-1051.5 650,-1193.5 650,-1193.5 650,-1199.5 644,-1205.5 638,-1205.5 638,-1205.5 518,-1205.5 518,-1205.5 512,-1205.5 506,-1199.5 506,-1193.5 506,-1193.5 506,-1051.5 506,-1051.5 506,-1045.5 512,-1039.5 518,-1039.5"/>
<text text-anchor="middle" x="578" y="-1190.3" font-family="Times,serif" font-size="14.00">Course</text>
<polyline fill="none" stroke="black" points="506,-1182.5 650,-1182.5 "/>
<text text-anchor="start" x="514" y="-1167.3" font-family="Times,serif" font-size="14.00">id :INTEGER</text>
<text text-anchor="start" x="514" y="-1152.3" font-family="Times,serif" font-size="14.00">description :text</text>
<text text-anchor="start" x="514" y="-1137.3" font-family="Times,serif" font-size="14.00">created_at :datetime</text>
<text text-anchor="start" x="514" y="-1122.3" font-family="Times,serif" font-size="14.00">updated_at :datetime</text>
<text text-anchor="start" x="514" y="-1107.3" font-family="Times,serif" font-size="14.00">name :text</text>
<text text-anchor="start" x="514" y="-1092.3" font-family="Times,serif" font-size="14.00">code :integer</text>
<text text-anchor="start" x="514" y="-1077.3" font-family="Times,serif" font-size="14.00">initials :text</text>
<text text-anchor="start" x="514" y="-1062.3" font-family="Times,serif" font-size="14.00">school_id :integer</text>
<text text-anchor="start" x="514" y="-1047.3" font-family="Times,serif" font-size="14.00">course_type_id :integer</text>
</g>
<!-- CourseUnit -->
<g id="node5" class="node"><title>CourseUnit</title>
<path fill="none" stroke="black" d="M548.5,-790.5C548.5,-790.5 655.5,-790.5 655.5,-790.5 661.5,-790.5 667.5,-796.5 667.5,-802.5 667.5,-802.5 667.5,-959.5 667.5,-959.5 667.5,-965.5 661.5,-971.5 655.5,-971.5 655.5,-971.5 548.5,-971.5 548.5,-971.5 542.5,-971.5 536.5,-965.5 536.5,-959.5 536.5,-959.5 536.5,-802.5 536.5,-802.5 536.5,-796.5 542.5,-790.5 548.5,-790.5"/>
<text text-anchor="middle" x="602" y="-956.3" font-family="Times,serif" font-size="14.00">CourseUnit</text>
<polyline fill="none" stroke="black" points="536.5,-948.5 667.5,-948.5 "/>
<text text-anchor="start" x="544.5" y="-933.3" font-family="Times,serif" font-size="14.00">id :INTEGER</text>
<text text-anchor="start" x="544.5" y="-918.3" font-family="Times,serif" font-size="14.00">name :text</text>
<text text-anchor="start" x="544.5" y="-903.3" font-family="Times,serif" font-size="14.00">description :text</text>
<text text-anchor="start" x="544.5" y="-888.3" font-family="Times,serif" font-size="14.00">code :integer</text>
<text text-anchor="start" x="544.5" y="-873.3" font-family="Times,serif" font-size="14.00">initials :text</text>
<text text-anchor="start" x="544.5" y="-858.3" font-family="Times,serif" font-size="14.00">created_at :datetime</text>
<text text-anchor="start" x="544.5" y="-843.3" font-family="Times,serif" font-size="14.00">updated_at :datetime</text>
<text text-anchor="start" x="544.5" y="-828.3" font-family="Times,serif" font-size="14.00">course_id :integer</text>
<text text-anchor="start" x="544.5" y="-813.3" font-family="Times,serif" font-size="14.00">year :text</text>
<text text-anchor="start" x="544.5" y="-798.3" font-family="Times,serif" font-size="14.00">semester :integer</text>
</g>
<!-- Course&#45;&gt;CourseUnit -->
<g id="edge1" class="edge"><title>Course&#45;&gt;CourseUnit</title>
<path fill="none" stroke="#5e370d" d="M587.027,-1031.42C588.646,-1015.26 590.343,-998.329 591.988,-981.913"/>
<ellipse fill="none" stroke="#5e370d" cx="586.625" cy="-1035.43" rx="4" ry="4"/>
<polygon fill="#5e370d" stroke="#5e370d" points="592.007,-981.719 597.482,-972.217 592.506,-976.744 593.004,-971.768 593.004,-971.768 593.004,-971.768 592.506,-976.744 588.527,-971.32 592.007,-981.719 592.007,-981.719"/>
</g>
<!-- Project -->
<g id="node11" class="node"><title>Project</title>
<path fill="none" stroke="black" d="M479,-496.5C479,-496.5 597,-496.5 597,-496.5 603,-496.5 609,-502.5 609,-508.5 609,-508.5 609,-710.5 609,-710.5 609,-716.5 603,-722.5 597,-722.5 597,-722.5 479,-722.5 479,-722.5 473,-722.5 467,-716.5 467,-710.5 467,-710.5 467,-508.5 467,-508.5 467,-502.5 473,-496.5 479,-496.5"/>
<text text-anchor="middle" x="538" y="-707.3" font-family="Times,serif" font-size="14.00">Project</text>
<polyline fill="none" stroke="black" points="467,-699.5 609,-699.5 "/>
<text text-anchor="start" x="475" y="-684.3" font-family="Times,serif" font-size="14.00">id :INTEGER</text>
<text text-anchor="start" x="475" y="-669.3" font-family="Times,serif" font-size="14.00">title :varchar</text>
<text text-anchor="start" x="475" y="-654.3" font-family="Times,serif" font-size="14.00">created_at :datetime</text>
<text text-anchor="start" x="475" y="-639.3" font-family="Times,serif" font-size="14.00">updated_at :datetime</text>
<text text-anchor="start" x="475" y="-624.3" font-family="Times,serif" font-size="14.00">resume :text</text>
<text text-anchor="start" x="475" y="-609.3" font-family="Times,serif" font-size="14.00">github :text</text>
<text text-anchor="start" x="475" y="-594.3" font-family="Times,serif" font-size="14.00">grade :text</text>
<text text-anchor="start" x="475" y="-579.3" font-family="Times,serif" font-size="14.00">project_url :text</text>
<text text-anchor="start" x="475" y="-564.3" font-family="Times,serif" font-size="14.00">date :date</text>
<text text-anchor="start" x="475" y="-549.3" font-family="Times,serif" font-size="14.00">finished :boolean</text>
<text text-anchor="start" x="475" y="-534.3" font-family="Times,serif" font-size="14.00">featured :boolean</text>
<text text-anchor="start" x="475" y="-519.3" font-family="Times,serif" font-size="14.00">user_id :integer</text>
<text text-anchor="start" x="475" y="-504.3" font-family="Times,serif" font-size="14.00">course_unit_id :integer</text>
</g>
<!-- Course&#45;&gt;Project -->
<g id="edge2" class="edge"><title>Course&#45;&gt;Project</title>
<path fill="none" stroke="#f6eab1" d="M535.399,-1029.72C532.4,-1020.5 529.84,-1011.16 528,-1002 510.164,-913.164 513.608,-810.724 521.01,-732.918"/>
<polygon fill="#f6eab1" stroke="#f6eab1" points="535.428,-1029.8 534.413,-1040.72 537.049,-1034.53 538.67,-1039.26 538.67,-1039.26 538.67,-1039.26 537.049,-1034.53 542.927,-1037.8 535.428,-1029.8 535.428,-1029.8"/>
<polygon fill="#f6eab1" stroke="#f6eab1" points="521.047,-732.542 526.507,-723.033 521.538,-727.567 522.029,-722.591 522.029,-722.591 522.029,-722.591 521.538,-727.567 517.551,-722.149 521.047,-732.542 521.047,-732.542"/>
</g>
<!-- CourseType -->
<g id="node4" class="node"><title>CourseType</title>
<path fill="none" stroke="black" d="M567.5,-1266C567.5,-1266 674.5,-1266 674.5,-1266 680.5,-1266 686.5,-1272 686.5,-1278 686.5,-1278 686.5,-1360 686.5,-1360 686.5,-1366 680.5,-1372 674.5,-1372 674.5,-1372 567.5,-1372 567.5,-1372 561.5,-1372 555.5,-1366 555.5,-1360 555.5,-1360 555.5,-1278 555.5,-1278 555.5,-1272 561.5,-1266 567.5,-1266"/>
<text text-anchor="middle" x="621" y="-1356.8" font-family="Times,serif" font-size="14.00">CourseType</text>
<polyline fill="none" stroke="black" points="555.5,-1349 686.5,-1349 "/>
<text text-anchor="start" x="563.5" y="-1333.8" font-family="Times,serif" font-size="14.00">id :INTEGER</text>
<text text-anchor="start" x="563.5" y="-1318.8" font-family="Times,serif" font-size="14.00">name :text</text>
<text text-anchor="start" x="563.5" y="-1303.8" font-family="Times,serif" font-size="14.00">cycle :integer</text>
<text text-anchor="start" x="563.5" y="-1288.8" font-family="Times,serif" font-size="14.00">created_at :datetime</text>
<text text-anchor="start" x="563.5" y="-1273.8" font-family="Times,serif" font-size="14.00">updated_at :datetime</text>
</g>
<!-- CourseType&#45;&gt;Course -->
<g id="edge3" class="edge"><title>CourseType&#45;&gt;Course</title>
<path fill="none" stroke="#2975a1" d="M607.721,-1257.94C604.763,-1244.56 601.56,-1230.07 598.389,-1215.73"/>
<ellipse fill="none" stroke="#2975a1" cx="608.613" cy="-1261.97" rx="4.00001" ry="4.00001"/>
<polygon fill="#2975a1" stroke="#2975a1" points="598.362,-1215.6 600.597,-1204.86 597.282,-1210.72 596.203,-1205.84 596.203,-1205.84 596.203,-1205.84 597.282,-1210.72 591.809,-1206.81 598.362,-1215.6 598.362,-1215.6"/>
</g>
<!-- CourseUnit&#45;&gt;Project -->
<g id="edge4" class="edge"><title>CourseUnit&#45;&gt;Project</title>
<path fill="none" stroke="#0e16a2" d="M578.809,-782.345C574.975,-766.201 570.958,-749.286 567.003,-732.631"/>
<ellipse fill="none" stroke="#0e16a2" cx="579.765" cy="-786.369" rx="4.00001" ry="4.00001"/>
<polygon fill="#0e16a2" stroke="#0e16a2" points="566.994,-732.592 569.062,-721.822 565.839,-727.727 564.683,-722.862 564.683,-722.862 564.683,-722.862 565.839,-727.727 560.305,-723.902 566.994,-732.592 566.994,-732.592"/>
</g>
<!-- Document -->
<g id="node6" class="node"><title>Document</title>
<path fill="none" stroke="black" d="M269.5,-233.5C269.5,-233.5 440.5,-233.5 440.5,-233.5 446.5,-233.5 452.5,-239.5 452.5,-245.5 452.5,-245.5 452.5,-432.5 452.5,-432.5 452.5,-438.5 446.5,-444.5 440.5,-444.5 440.5,-444.5 269.5,-444.5 269.5,-444.5 263.5,-444.5 257.5,-438.5 257.5,-432.5 257.5,-432.5 257.5,-245.5 257.5,-245.5 257.5,-239.5 263.5,-233.5 269.5,-233.5"/>
<text text-anchor="middle" x="355" y="-429.3" font-family="Times,serif" font-size="14.00">Document</text>
<polyline fill="none" stroke="black" points="257.5,-421.5 452.5,-421.5 "/>
<text text-anchor="start" x="265.5" y="-406.3" font-family="Times,serif" font-size="14.00">id :INTEGER</text>
<text text-anchor="start" x="265.5" y="-391.3" font-family="Times,serif" font-size="14.00">description :text</text>
<text text-anchor="start" x="265.5" y="-376.3" font-family="Times,serif" font-size="14.00">date :date</text>
<text text-anchor="start" x="265.5" y="-361.3" font-family="Times,serif" font-size="14.00">local :text</text>
<text text-anchor="start" x="265.5" y="-346.3" font-family="Times,serif" font-size="14.00">created_at :datetime</text>
<text text-anchor="start" x="265.5" y="-331.3" font-family="Times,serif" font-size="14.00">updated_at :datetime</text>
<text text-anchor="start" x="265.5" y="-316.3" font-family="Times,serif" font-size="14.00">name :text</text>
<text text-anchor="start" x="265.5" y="-301.3" font-family="Times,serif" font-size="14.00">project_id :integer</text>
<text text-anchor="start" x="265.5" y="-286.3" font-family="Times,serif" font-size="14.00">document_file_name :varchar</text>
<text text-anchor="start" x="265.5" y="-271.3" font-family="Times,serif" font-size="14.00">document_content_type :varchar</text>
<text text-anchor="start" x="265.5" y="-256.3" font-family="Times,serif" font-size="14.00">document_file_size :integer</text>
<text text-anchor="start" x="265.5" y="-241.3" font-family="Times,serif" font-size="14.00">document_updated_at :datetime</text>
</g>
<!-- Institution -->
<g id="node7" class="node"><title>Institution</title>
<path fill="none" stroke="black" d="M416.5,-1432.5C416.5,-1432.5 523.5,-1432.5 523.5,-1432.5 529.5,-1432.5 535.5,-1438.5 535.5,-1444.5 535.5,-1444.5 535.5,-1541.5 535.5,-1541.5 535.5,-1547.5 529.5,-1553.5 523.5,-1553.5 523.5,-1553.5 416.5,-1553.5 416.5,-1553.5 410.5,-1553.5 404.5,-1547.5 404.5,-1541.5 404.5,-1541.5 404.5,-1444.5 404.5,-1444.5 404.5,-1438.5 410.5,-1432.5 416.5,-1432.5"/>
<text text-anchor="middle" x="470" y="-1538.3" font-family="Times,serif" font-size="14.00">Institution</text>
<polyline fill="none" stroke="black" points="404.5,-1530.5 535.5,-1530.5 "/>
<text text-anchor="start" x="412.5" y="-1515.3" font-family="Times,serif" font-size="14.00">id :INTEGER</text>
<text text-anchor="start" x="412.5" y="-1500.3" font-family="Times,serif" font-size="14.00">name :text</text>
<text text-anchor="start" x="412.5" y="-1485.3" font-family="Times,serif" font-size="14.00">initials :text</text>
<text text-anchor="start" x="412.5" y="-1470.3" font-family="Times,serif" font-size="14.00">code :varchar</text>
<text text-anchor="start" x="412.5" y="-1455.3" font-family="Times,serif" font-size="14.00">created_at :datetime</text>
<text text-anchor="start" x="412.5" y="-1440.3" font-family="Times,serif" font-size="14.00">updated_at :datetime</text>
</g>
<!-- School -->
<g id="node13" class="node"><title>School</title>
<path fill="none" stroke="black" d="M415,-1243.5C415,-1243.5 525,-1243.5 525,-1243.5 531,-1243.5 537,-1249.5 537,-1255.5 537,-1255.5 537,-1382.5 537,-1382.5 537,-1388.5 531,-1394.5 525,-1394.5 525,-1394.5 415,-1394.5 415,-1394.5 409,-1394.5 403,-1388.5 403,-1382.5 403,-1382.5 403,-1255.5 403,-1255.5 403,-1249.5 409,-1243.5 415,-1243.5"/>
<text text-anchor="middle" x="470" y="-1379.3" font-family="Times,serif" font-size="14.00">School</text>
<polyline fill="none" stroke="black" points="403,-1371.5 537,-1371.5 "/>
<text text-anchor="start" x="411" y="-1356.3" font-family="Times,serif" font-size="14.00">id :INTEGER</text>
<text text-anchor="start" x="411" y="-1341.3" font-family="Times,serif" font-size="14.00">description :text</text>
<text text-anchor="start" x="411" y="-1326.3" font-family="Times,serif" font-size="14.00">created_at :datetime</text>
<text text-anchor="start" x="411" y="-1311.3" font-family="Times,serif" font-size="14.00">updated_at :datetime</text>
<text text-anchor="start" x="411" y="-1296.3" font-family="Times,serif" font-size="14.00">name :text</text>
<text text-anchor="start" x="411" y="-1281.3" font-family="Times,serif" font-size="14.00">code :integer</text>
<text text-anchor="start" x="411" y="-1266.3" font-family="Times,serif" font-size="14.00">initials :text</text>
<text text-anchor="start" x="411" y="-1251.3" font-family="Times,serif" font-size="14.00">institution_id :integer</text>
</g>
<!-- Institution&#45;&gt;School -->
<g id="edge5" class="edge"><title>Institution&#45;&gt;School</title>
<path fill="none" stroke="#cb8f74" d="M470,-1424.27C470,-1417.9 470,-1411.4 470,-1404.9"/>
<ellipse fill="none" stroke="#cb8f74" cx="470" cy="-1428.33" rx="4" ry="4"/>
<polygon fill="#cb8f74" stroke="#cb8f74" points="470,-1404.72 474.5,-1394.72 470,-1399.72 470,-1394.72 470,-1394.72 470,-1394.72 470,-1399.72 465.5,-1394.72 470,-1404.72 470,-1404.72"/>
</g>
<!-- Person -->
<g id="node8" class="node"><title>Person</title>
<path fill="none" stroke="black" d="M79,-248.5C79,-248.5 227,-248.5 227,-248.5 233,-248.5 239,-254.5 239,-260.5 239,-260.5 239,-417.5 239,-417.5 239,-423.5 233,-429.5 227,-429.5 227,-429.5 79,-429.5 79,-429.5 73,-429.5 67,-423.5 67,-417.5 67,-417.5 67,-260.5 67,-260.5 67,-254.5 73,-248.5 79,-248.5"/>
<text text-anchor="middle" x="153" y="-414.3" font-family="Times,serif" font-size="14.00">Person</text>
<polyline fill="none" stroke="black" points="67,-406.5 239,-406.5 "/>
<text text-anchor="start" x="75" y="-391.3" font-family="Times,serif" font-size="14.00">id :INTEGER</text>
<text text-anchor="start" x="75" y="-376.3" font-family="Times,serif" font-size="14.00">name :text</text>
<text text-anchor="start" x="75" y="-361.3" font-family="Times,serif" font-size="14.00">email :text</text>
<text text-anchor="start" x="75" y="-346.3" font-family="Times,serif" font-size="14.00">created_at :datetime</text>
<text text-anchor="start" x="75" y="-331.3" font-family="Times,serif" font-size="14.00">updated_at :datetime</text>
<text text-anchor="start" x="75" y="-316.3" font-family="Times,serif" font-size="14.00">photo_file_name :varchar</text>
<text text-anchor="start" x="75" y="-301.3" font-family="Times,serif" font-size="14.00">photo_content_type :varchar</text>
<text text-anchor="start" x="75" y="-286.3" font-family="Times,serif" font-size="14.00">photo_file_size :integer</text>
<text text-anchor="start" x="75" y="-271.3" font-family="Times,serif" font-size="14.00">photo_updated_at :datetime</text>
<text text-anchor="start" x="75" y="-256.3" font-family="Times,serif" font-size="14.00">person_type_id :integer</text>
</g>
<!-- Presentation -->
<g id="node10" class="node"><title>Presentation</title>
<path fill="none" stroke="black" d="M133,-0.5C133,-0.5 281,-0.5 281,-0.5 287,-0.5 293,-6.5 293,-12.5 293,-12.5 293,-169.5 293,-169.5 293,-175.5 287,-181.5 281,-181.5 281,-181.5 133,-181.5 133,-181.5 127,-181.5 121,-175.5 121,-169.5 121,-169.5 121,-12.5 121,-12.5 121,-6.5 127,-0.5 133,-0.5"/>
<text text-anchor="middle" x="207" y="-166.3" font-family="Times,serif" font-size="14.00">Presentation</text>
<polyline fill="none" stroke="black" points="121,-158.5 293,-158.5 "/>
<text text-anchor="start" x="129" y="-143.3" font-family="Times,serif" font-size="14.00">id :INTEGER</text>
<text text-anchor="start" x="129" y="-128.3" font-family="Times,serif" font-size="14.00">date :datetime</text>
<text text-anchor="start" x="129" y="-113.3" font-family="Times,serif" font-size="14.00">created_at :datetime</text>
<text text-anchor="start" x="129" y="-98.3" font-family="Times,serif" font-size="14.00">updated_at :datetime</text>
<text text-anchor="start" x="129" y="-83.3" font-family="Times,serif" font-size="14.00">room :text</text>
<text text-anchor="start" x="129" y="-68.3" font-family="Times,serif" font-size="14.00">project_id :integer</text>
<text text-anchor="start" x="129" y="-53.3" font-family="Times,serif" font-size="14.00">slides_file_name :varchar</text>
<text text-anchor="start" x="129" y="-38.3" font-family="Times,serif" font-size="14.00">slides_content_type :varchar</text>
<text text-anchor="start" x="129" y="-23.3" font-family="Times,serif" font-size="14.00">slides_file_size :integer</text>
<text text-anchor="start" x="129" y="-8.3" font-family="Times,serif" font-size="14.00">slides_updated_at :datetime</text>
</g>
<!-- Person&#45;&gt;Presentation -->
<g id="edge8" class="edge"><title>Person&#45;&gt;Presentation</title>
<path fill="none" stroke="#0fa956" d="M179.648,-238.239C181.531,-230.393 183.339,-222.577 185,-215 186.665,-207.401 188.296,-199.518 189.869,-191.579"/>
<polygon fill="#0fa956" stroke="#0fa956" points="179.593,-238.462 172.854,-247.113 178.41,-243.32 177.227,-248.178 177.227,-248.178 177.227,-248.178 178.41,-243.32 181.599,-249.243 179.593,-238.462 179.593,-238.462"/>
<polygon fill="#0fa956" stroke="#0fa956" points="189.918,-191.326 196.245,-182.37 190.873,-186.418 191.828,-181.51 191.828,-181.51 191.828,-181.51 190.873,-186.418 187.411,-180.651 189.918,-191.326 189.918,-191.326"/>
<text text-anchor="middle" x="243" y="-203.8" font-family="Times,serif" font-size="14.00">juried_presentations</text>
</g>
<!-- Person&#45;&gt;Project -->
<g id="edge6" class="edge"><title>Person&#45;&gt;Project</title>
<path fill="none" stroke="#cb7210" d="M159.572,-439.43C164.005,-453.496 170.528,-466.918 180,-478 189.434,-489.037 354.342,-546.326 457.013,-581.227"/>
<polygon fill="#cb7210" stroke="#cb7210" points="159.519,-439.24 161.16,-428.398 158.173,-434.425 156.826,-429.609 156.826,-429.609 156.826,-429.609 158.173,-434.425 152.493,-430.821 159.519,-439.24 159.519,-439.24"/>
<polygon fill="#cb7210" stroke="#cb7210" points="457.278,-581.317 465.3,-588.794 462.013,-582.925 466.747,-584.533 466.747,-584.533 466.747,-584.533 462.013,-582.925 468.194,-580.272 457.278,-581.317 457.278,-581.317"/>
</g>
<!-- Person&#45;&gt;Project -->
<g id="edge7" class="edge"><title>Person&#45;&gt;Project</title>
<path fill="none" stroke="#9967d6" d="M174.743,-439.057C181.118,-453.335 189.357,-466.92 200,-478 268.602,-549.417 380.654,-582.349 456.772,-597.121"/>
<polygon fill="#9967d6" stroke="#9967d6" points="174.648,-438.829 174.972,-427.868 172.732,-434.211 170.815,-429.593 170.815,-429.593 170.815,-429.593 172.732,-434.211 166.659,-431.318 174.648,-438.829 174.648,-438.829"/>
<polygon fill="#9967d6" stroke="#9967d6" points="456.972,-597.158 465.97,-603.426 461.886,-598.081 466.8,-599.003 466.8,-599.003 466.8,-599.003 461.886,-598.081 467.63,-594.58 456.972,-597.158 456.972,-597.158"/>
<text text-anchor="middle" x="254" y="-466.8" font-family="Times,serif" font-size="14.00">supervised_projects</text>
</g>
<!-- PersonType -->
<g id="node9" class="node"><title>PersonType</title>
<path fill="none" stroke="black" d="M87.5,-564C87.5,-564 194.5,-564 194.5,-564 200.5,-564 206.5,-570 206.5,-576 206.5,-576 206.5,-643 206.5,-643 206.5,-649 200.5,-655 194.5,-655 194.5,-655 87.5,-655 87.5,-655 81.5,-655 75.5,-649 75.5,-643 75.5,-643 75.5,-576 75.5,-576 75.5,-570 81.5,-564 87.5,-564"/>
<text text-anchor="middle" x="141" y="-639.8" font-family="Times,serif" font-size="14.00">PersonType</text>
<polyline fill="none" stroke="black" points="75.5,-632 206.5,-632 "/>
<text text-anchor="start" x="83.5" y="-616.8" font-family="Times,serif" font-size="14.00">id :INTEGER</text>
<text text-anchor="start" x="83.5" y="-601.8" font-family="Times,serif" font-size="14.00">designation :text</text>
<text text-anchor="start" x="83.5" y="-586.8" font-family="Times,serif" font-size="14.00">created_at :datetime</text>
<text text-anchor="start" x="83.5" y="-571.8" font-family="Times,serif" font-size="14.00">updated_at :datetime</text>
</g>
<!-- PersonType&#45;&gt;Person -->
<g id="edge9" class="edge"><title>PersonType&#45;&gt;Person</title>
<path fill="none" stroke="#980bd5" d="M143.369,-555.485C144.844,-522.494 146.787,-479.015 148.542,-439.757"/>
<ellipse fill="none" stroke="#980bd5" cx="143.174" cy="-559.865" rx="4" ry="4"/>
<polygon fill="#980bd5" stroke="#980bd5" points="148.548,-439.601 153.491,-429.812 148.772,-434.606 148.995,-429.611 148.995,-429.611 148.995,-429.611 148.772,-434.606 144.5,-429.41 148.548,-439.601 148.548,-439.601"/>
</g>
<!-- Presentation&#45;&gt;Person -->
<g id="edge10" class="edge"><title>Presentation&#45;&gt;Person</title>
<path fill="none" stroke="#16b3f0" d="M152.373,-191.449C151.5,-194.301 150.705,-197.154 150,-200 146.999,-212.114 145.344,-225.01 144.61,-237.869"/>
<polygon fill="#16b3f0" stroke="#16b3f0" points="152.44,-191.25 159.893,-183.205 154.034,-186.51 155.628,-181.771 155.628,-181.771 155.628,-181.771 154.034,-186.51 151.362,-180.337 152.44,-191.25 152.44,-191.25"/>
<polygon fill="#16b3f0" stroke="#16b3f0" points="144.599,-238.165 139.715,-247.984 144.405,-243.162 144.211,-248.158 144.211,-248.158 144.211,-248.158 144.405,-243.162 148.708,-248.332 144.599,-238.165 144.599,-238.165"/>
<text text-anchor="middle" x="165.5" y="-203.8" font-family="Times,serif" font-size="14.00">juries</text>
</g>
<!-- Project&#45;&gt;Document -->
<g id="edge16" class="edge"><title>Project&#45;&gt;Document</title>
<path fill="none" stroke="#fe84e6" d="M462.264,-497.38C452.309,-482.774 442.098,-467.791 432.12,-453.152"/>
<ellipse fill="none" stroke="#fe84e6" cx="464.733" cy="-501.001" rx="4.00002" ry="4.00002"/>
<polygon fill="#fe84e6" stroke="#fe84e6" points="431.908,-452.84 429.995,-442.043 429.092,-448.709 426.276,-444.577 426.276,-444.577 426.276,-444.577 429.092,-448.709 422.558,-447.112 431.908,-452.84 431.908,-452.84"/>
</g>
<!-- Project&#45;&gt;Person -->
<g id="edge18" class="edge"><title>Project&#45;&gt;Person</title>
<path fill="none" stroke="#7b739c" d="M458.349,-550.641C415.395,-521.399 360.543,-487.102 308,-463 283.081,-451.569 272.182,-459.635 249,-445 244.609,-442.228 240.292,-439.203 236.066,-435.985"/>
<polygon fill="#7b739c" stroke="#7b739c" points="458.528,-550.764 464.233,-560.129 462.653,-553.59 466.777,-556.417 466.777,-556.417 466.777,-556.417 462.653,-553.59 469.321,-552.705 458.528,-550.764 458.528,-550.764"/>
<polygon fill="#7b739c" stroke="#7b739c" points="235.864,-435.824 230.868,-426.063 231.96,-432.7 228.056,-429.576 228.056,-429.576 228.056,-429.576 231.96,-432.7 225.245,-433.09 235.864,-435.824 235.864,-435.824"/>
<text text-anchor="middle" x="365" y="-466.8" font-family="Times,serif" font-size="14.00">supervisors</text>
</g>
<!-- Project&#45;&gt;Presentation -->
<g id="edge15" class="edge"><title>Project&#45;&gt;Presentation</title>
<path fill="none" stroke="#14bad5" d="M509.274,-488.056C506.037,-473.572 502.873,-458.969 500,-445 480.714,-351.239 517.738,-310.822 462,-233 423.036,-178.597 356.255,-142.77 300.808,-120.847"/>
<ellipse fill="none" stroke="#14bad5" cx="510.202" cy="-492.183" rx="4.00001" ry="4.00001"/>
<ellipse fill="#14bad5" stroke="#14bad5" cx="296.793" cy="-119.291" rx="4.00001" ry="4.00001"/>
</g>
<!-- ProjectImage -->
<g id="node12" class="node"><title>ProjectImage</title>
<path fill="none" stroke="black" d="M520.5,-263.5C520.5,-263.5 671.5,-263.5 671.5,-263.5 677.5,-263.5 683.5,-269.5 683.5,-275.5 683.5,-275.5 683.5,-402.5 683.5,-402.5 683.5,-408.5 677.5,-414.5 671.5,-414.5 671.5,-414.5 520.5,-414.5 520.5,-414.5 514.5,-414.5 508.5,-408.5 508.5,-402.5 508.5,-402.5 508.5,-275.5 508.5,-275.5 508.5,-269.5 514.5,-263.5 520.5,-263.5"/>
<text text-anchor="middle" x="596" y="-399.3" font-family="Times,serif" font-size="14.00">ProjectImage</text>
<polyline fill="none" stroke="black" points="508.5,-391.5 683.5,-391.5 "/>
<text text-anchor="start" x="516.5" y="-376.3" font-family="Times,serif" font-size="14.00">id :INTEGER</text>
<text text-anchor="start" x="516.5" y="-361.3" font-family="Times,serif" font-size="14.00">created_at :datetime</text>
<text text-anchor="start" x="516.5" y="-346.3" font-family="Times,serif" font-size="14.00">updated_at :datetime</text>
<text text-anchor="start" x="516.5" y="-331.3" font-family="Times,serif" font-size="14.00">image_file_name :varchar</text>
<text text-anchor="start" x="516.5" y="-316.3" font-family="Times,serif" font-size="14.00">image_content_type :varchar</text>
<text text-anchor="start" x="516.5" y="-301.3" font-family="Times,serif" font-size="14.00">image_file_size :integer</text>
<text text-anchor="start" x="516.5" y="-286.3" font-family="Times,serif" font-size="14.00">image_updated_at :datetime</text>
<text text-anchor="start" x="516.5" y="-271.3" font-family="Times,serif" font-size="14.00">project_id :integer</text>
</g>
<!-- Project&#45;&gt;ProjectImage -->
<g id="edge17" class="edge"><title>Project&#45;&gt;ProjectImage</title>
<path fill="none" stroke="#e45f60" d="M564.005,-488.115C568.615,-466.773 573.327,-444.959 577.669,-424.861"/>
<ellipse fill="none" stroke="#e45f60" cx="563.106" cy="-492.278" rx="4.00001" ry="4.00001"/>
<polygon fill="#e45f60" stroke="#e45f60" points="577.724,-424.606 584.234,-415.781 578.78,-419.719 579.835,-414.831 579.835,-414.831 579.835,-414.831 578.78,-419.719 575.437,-413.881 577.724,-424.606 577.724,-424.606"/>
</g>
<!-- ActsAsTaggableOn::Tagging -->
<g id="node16" class="node"><title>ActsAsTaggableOn::Tagging</title>
<ellipse fill="none" stroke="black" cx="816" cy="-339" rx="114.28" ry="18"/>
<text text-anchor="middle" x="816" y="-335.3" font-family="Times,serif" font-size="14.00">ActsAsTaggableOn::Tagging</text>
</g>
<!-- Project&#45;&gt;ActsAsTaggableOn::Tagging -->
<g id="edge11" class="edge"><title>Project&#45;&gt;ActsAsTaggableOn::Tagging</title>
<path fill="none" stroke="#1bfc57" d="M615.259,-533.881C674.324,-476.835 752.054,-401.761 791.2,-363.953"/>
<ellipse fill="none" stroke="#1bfc57" cx="612.108" cy="-536.924" rx="4.00002" ry="4.00002"/>
<polygon fill="#1bfc57" stroke="#1bfc57" points="791.305,-363.851 801.624,-360.141 794.901,-360.378 798.498,-356.904 798.498,-356.904 798.498,-356.904 794.901,-360.378 795.371,-353.668 791.305,-363.851 791.305,-363.851"/>
<text text-anchor="middle" x="708" y="-466.8" font-family="Times,serif" font-size="14.00">taggings</text>
</g>
<!-- Project&#45;&gt;ActsAsTaggableOn::Tagging -->
<g id="edge13" class="edge"><title>Project&#45;&gt;ActsAsTaggableOn::Tagging</title>
<path fill="none" stroke="#03ba00" d="M616.576,-567.687C655.366,-544.909 701.006,-513.892 735,-478 766.752,-444.476 791.418,-396.311 804.815,-366.648"/>
<ellipse fill="none" stroke="#03ba00" cx="612.877" cy="-569.836" rx="4.00002" ry="4.00002"/>
<polygon fill="#03ba00" stroke="#03ba00" points="804.882,-366.495 813.037,-359.163 806.901,-361.921 808.92,-357.346 808.92,-357.346 808.92,-357.346 806.901,-361.921 804.803,-355.529 804.882,-366.495 804.882,-366.495"/>
<text text-anchor="middle" x="781" y="-466.8" font-family="Times,serif" font-size="14.00">tag_taggings</text>
</g>
<!-- ActsAsTaggableOn::Tag -->
<g id="node17" class="node"><title>ActsAsTaggableOn::Tag</title>
<ellipse fill="none" stroke="black" cx="1047" cy="-339" rx="98.5829" ry="18"/>
<text text-anchor="middle" x="1047" y="-335.3" font-family="Times,serif" font-size="14.00">ActsAsTaggableOn::Tag</text>
</g>
<!-- Project&#45;&gt;ActsAsTaggableOn::Tag -->
<g id="edge12" class="edge"><title>Project&#45;&gt;ActsAsTaggableOn::Tag</title>
<path fill="none" stroke="#5ee967" d="M619.135,-585.562C703.429,-559.482 837.019,-511.703 939,-445 973.455,-422.464 1006.38,-387.934 1026.62,-364.686"/>
<polygon fill="#5ee967" stroke="#5ee967" points="618.921,-585.628 608.041,-584.255 614.14,-587.093 609.36,-588.558 609.36,-588.558 609.36,-588.558 614.14,-587.093 610.678,-592.86 618.921,-585.628 618.921,-585.628"/>
<polygon fill="#5ee967" stroke="#5ee967" points="1026.73,-364.564 1036.65,-359.901 1029.98,-360.768 1033.24,-356.972 1033.24,-356.972 1033.24,-356.972 1029.98,-360.768 1029.82,-354.043 1026.73,-364.564 1026.73,-364.564"/>
<text text-anchor="middle" x="935.5" y="-466.8" font-family="Times,serif" font-size="14.00">base_tags</text>
</g>
<!-- Project&#45;&gt;ActsAsTaggableOn::Tag -->
<g id="edge14" class="edge"><title>Project&#45;&gt;ActsAsTaggableOn::Tag</title>
<path fill="none" stroke="#2aa60a" d="M619.508,-601.385C712.193,-589.582 863.865,-558.583 966,-478 1002.84,-448.936 1026.33,-398.149 1038.04,-366.958"/>
<polygon fill="#2aa60a" stroke="#2aa60a" points="619.264,-601.415 608.79,-598.167 614.301,-602.024 609.338,-602.633 609.338,-602.633 609.338,-602.633 614.301,-602.024 609.887,-607.1 619.264,-601.415 619.264,-601.415"/>
<polygon fill="#2aa60a" stroke="#2aa60a" points="1038.17,-366.596 1045.8,-358.718 1039.87,-361.893 1041.57,-357.19 1041.57,-357.19 1041.57,-357.19 1039.87,-361.893 1037.34,-355.663 1038.17,-366.596 1038.17,-366.596"/>
<text text-anchor="middle" x="992" y="-466.8" font-family="Times,serif" font-size="14.00">tags</text>
</g>
<!-- School&#45;&gt;Course -->
<g id="edge19" class="edge"><title>School&#45;&gt;Course</title>
<path fill="none" stroke="#194dcc" d="M515.484,-1236.09C519.407,-1229.02 523.392,-1221.84 527.353,-1214.71"/>
<ellipse fill="none" stroke="#194dcc" cx="513.389" cy="-1239.86" rx="4.00002" ry="4.00002"/>
<polygon fill="#194dcc" stroke="#194dcc" points="527.495,-1214.46 536.284,-1207.9 529.923,-1210.08 532.35,-1205.71 532.35,-1205.71 532.35,-1205.71 529.923,-1210.08 528.416,-1203.53 527.495,-1214.46 527.495,-1214.46"/>
</g>
<!-- School&#45;&gt;Project -->
<g id="edge20" class="edge"><title>School&#45;&gt;Project</title>
<path fill="none" stroke="#648ea8" d="M473.078,-1233.26C477.745,-1123.65 488.451,-926.968 510,-760 511.154,-751.057 512.499,-741.84 513.962,-732.58"/>
<polygon fill="#648ea8" stroke="#648ea8" points="473.077,-1233.28 468.162,-1243.08 472.868,-1238.27 472.658,-1243.27 472.658,-1243.27 472.658,-1243.27 472.868,-1238.27 477.154,-1243.46 473.077,-1233.28 473.077,-1233.28"/>
<polygon fill="#648ea8" stroke="#648ea8" points="513.992,-732.398 520.036,-723.248 514.793,-727.463 515.594,-722.527 515.594,-722.527 515.594,-722.527 514.793,-727.463 511.152,-721.807 513.992,-732.398 513.992,-732.398"/>
</g>
<!-- Tag -->
<g id="node14" class="node"><title>Tag</title>
<path fill="none" stroke="black" d="M566,-1455C566,-1455 686,-1455 686,-1455 692,-1455 698,-1461 698,-1467 698,-1467 698,-1519 698,-1519 698,-1525 692,-1531 686,-1531 686,-1531 566,-1531 566,-1531 560,-1531 554,-1525 554,-1519 554,-1519 554,-1467 554,-1467 554,-1461 560,-1455 566,-1455"/>
<text text-anchor="middle" x="626" y="-1515.8" font-family="Times,serif" font-size="14.00">Tag</text>
<polyline fill="none" stroke="black" points="554,-1508 698,-1508 "/>
<text text-anchor="start" x="562" y="-1492.8" font-family="Times,serif" font-size="14.00">id :INTEGER</text>
<text text-anchor="start" x="562" y="-1477.8" font-family="Times,serif" font-size="14.00">name :varchar</text>
<text text-anchor="start" x="562" y="-1462.8" font-family="Times,serif" font-size="14.00">taggings_count :integer</text>
</g>
<!-- User -->
<g id="node15" class="node"><title>User</title>
<path fill="none" stroke="black" d="M698,-760.5C698,-760.5 874,-760.5 874,-760.5 880,-760.5 886,-766.5 886,-772.5 886,-772.5 886,-989.5 886,-989.5 886,-995.5 880,-1001.5 874,-1001.5 874,-1001.5 698,-1001.5 698,-1001.5 692,-1001.5 686,-995.5 686,-989.5 686,-989.5 686,-772.5 686,-772.5 686,-766.5 692,-760.5 698,-760.5"/>
<text text-anchor="middle" x="786" y="-986.3" font-family="Times,serif" font-size="14.00">User</text>
<polyline fill="none" stroke="black" points="686,-978.5 886,-978.5 "/>
<text text-anchor="start" x="694" y="-963.3" font-family="Times,serif" font-size="14.00">id :INTEGER</text>
<text text-anchor="start" x="694" y="-948.3" font-family="Times,serif" font-size="14.00">email :varchar</text>
<text text-anchor="start" x="694" y="-933.3" font-family="Times,serif" font-size="14.00">encrypted_password :varchar</text>
<text text-anchor="start" x="694" y="-918.3" font-family="Times,serif" font-size="14.00">reset_password_token :varchar</text>
<text text-anchor="start" x="694" y="-903.3" font-family="Times,serif" font-size="14.00">reset_password_sent_at :datetime</text>
<text text-anchor="start" x="694" y="-888.3" font-family="Times,serif" font-size="14.00">remember_created_at :datetime</text>
<text text-anchor="start" x="694" y="-873.3" font-family="Times,serif" font-size="14.00">sign_in_count :integer</text>
<text text-anchor="start" x="694" y="-858.3" font-family="Times,serif" font-size="14.00">current_sign_in_at :datetime</text>
<text text-anchor="start" x="694" y="-843.3" font-family="Times,serif" font-size="14.00">last_sign_in_at :datetime</text>
<text text-anchor="start" x="694" y="-828.3" font-family="Times,serif" font-size="14.00">current_sign_in_ip :varchar</text>
<text text-anchor="start" x="694" y="-813.3" font-family="Times,serif" font-size="14.00">last_sign_in_ip :varchar</text>
<text text-anchor="start" x="694" y="-798.3" font-family="Times,serif" font-size="14.00">created_at :datetime</text>
<text text-anchor="start" x="694" y="-783.3" font-family="Times,serif" font-size="14.00">updated_at :datetime</text>
<text text-anchor="start" x="694" y="-768.3" font-family="Times,serif" font-size="14.00">admin :boolean</text>
</g>
<!-- User&#45;&gt;Project -->
<g id="edge21" class="edge"><title>User&#45;&gt;Project</title>
<path fill="none" stroke="#4ef009" d="M680.338,-763.634C679.22,-762.416 678.107,-761.205 677,-760 657.372,-738.642 636.086,-715.658 616.208,-694.273"/>
<ellipse fill="none" stroke="#4ef009" cx="683.262" cy="-766.823" rx="4.00002" ry="4.00002"/>
<polygon fill="#4ef009" stroke="#4ef009" points="616.051,-694.103 612.537,-683.716 612.646,-690.442 609.241,-686.78 609.241,-686.78 609.241,-686.78 612.646,-690.442 605.946,-689.844 616.051,-694.103 616.051,-694.103"/>
</g>
</g>
</svg>
